<svg width="28" height="29" viewBox="0 0 28 29" fill="none" xmlns="http://www.w3.org/2000/svg">
<path d="M8.41153 18.0002L3.1032 8.83016C2.8743 8.43451 2.76665 7.98035 2.79361 7.52405C2.82058 7.06776 2.98097 6.62943 3.25487 6.2635L5.1332 3.76683C5.35054 3.47704 5.63237 3.24183 5.95637 3.07983C6.28037 2.91783 6.63763 2.8335 6.99987 2.8335H20.9999C21.3621 2.8335 21.7194 2.91783 22.0434 3.07983C22.3674 3.24183 22.6492 3.47704 22.8665 3.76683L24.7332 6.2635C25.0089 6.62825 25.1714 7.06598 25.2004 7.52229C25.2295 7.97861 25.1238 8.4334 24.8965 8.83016L19.5882 18.0002" stroke="#A56424" stroke-width="2.33333" stroke-linecap="round" stroke-linejoin="round"/>
<path d="M12.8331 14.5002L5.97314 3.06689" stroke="#A56424" stroke-width="2.33333" stroke-linecap="round" stroke-linejoin="round"/>
<path d="M15.1665 14.5002L22.0265 3.06689" stroke="#A56424" stroke-width="2.33333" stroke-linecap="round" stroke-linejoin="round"/>
<path d="M9.3335 8.6665H18.6668" stroke="#A56424" stroke-width="2.33333" stroke-linecap="round" stroke-linejoin="round"/>
<path d="M13.9998 26.1667C17.2215 26.1667 19.8332 23.555 19.8332 20.3333C19.8332 17.1117 17.2215 14.5 13.9998 14.5C10.7782 14.5 8.1665 17.1117 8.1665 20.3333C8.1665 23.555 10.7782 26.1667 13.9998 26.1667Z" stroke="#A56424" stroke-width="2.33333" stroke-linecap="round" stroke-linejoin="round"/>
<path d="M13.9998 21.4998V19.1665H13.4165" stroke="#A56424" stroke-width="2.33333" stroke-linecap="round" stroke-linejoin="round"/>
</svg>
