<svg width="28" height="28" viewBox="0 0 28 28" fill="none" xmlns="http://www.w3.org/2000/svg">
<path d="M8.41153 17.5L3.1032 8.32999C2.8743 7.93435 2.76665 7.48018 2.79361 7.02389C2.82058 6.56759 2.98097 6.12927 3.25487 5.76333L5.1332 3.26666C5.35054 2.97687 5.63237 2.74166 5.95637 2.57966C6.28037 2.41767 6.63763 2.33333 6.99987 2.33333H20.9999C21.3621 2.33333 21.7194 2.41767 22.0434 2.57966C22.3674 2.74166 22.6492 2.97687 22.8665 3.26666L24.7332 5.76333C25.0089 6.12809 25.1714 6.56581 25.2004 7.02213C25.2295 7.47844 25.1238 7.93323 24.8965 8.32999L19.5882 17.5" stroke="#A56424" stroke-width="2.33333" stroke-linecap="round" stroke-linejoin="round"/>
<path d="M12.8331 14L5.97314 2.56667" stroke="#A56424" stroke-width="2.33333" stroke-linecap="round" stroke-linejoin="round"/>
<path d="M15.1665 14L22.0265 2.56667" stroke="#A56424" stroke-width="2.33333" stroke-linecap="round" stroke-linejoin="round"/>
<path d="M9.3335 8.16667H18.6668" stroke="#A56424" stroke-width="2.33333" stroke-linecap="round" stroke-linejoin="round"/>
<path d="M13.9998 25.6667C17.2215 25.6667 19.8332 23.055 19.8332 19.8333C19.8332 16.6117 17.2215 14 13.9998 14C10.7782 14 8.1665 16.6117 8.1665 19.8333C8.1665 23.055 10.7782 25.6667 13.9998 25.6667Z" stroke="#A56424" stroke-width="2.33333" stroke-linecap="round" stroke-linejoin="round"/>
<path d="M13.9998 21V18.6667H13.4165" stroke="#A56424" stroke-width="2.33333" stroke-linecap="round" stroke-linejoin="round"/>
</svg>
