<svg width="14" height="11" viewBox="0 0 14 11" fill="none" xmlns="http://www.w3.org/2000/svg">
<path d="M12.3333 0.166664H1.66659C0.933252 0.166664 0.339919 0.766664 0.339919 1.5L0.333252 9.5C0.333252 10.2333 0.933252 10.8333 1.66659 10.8333H12.3333C13.0666 10.8333 13.6666 10.2333 13.6666 9.5V1.5C13.6666 0.766664 13.0666 0.166664 12.3333 0.166664ZM12.0666 3L7.35325 5.94666C7.13992 6.08 6.85992 6.08 6.64659 5.94666L1.93325 3C1.76659 2.89333 1.66659 2.71333 1.66659 2.52C1.66659 2.07333 2.15325 1.80666 2.53325 2.04L6.99992 4.83333L11.4666 2.04C11.8466 1.80666 12.3333 2.07333 12.3333 2.52C12.3333 2.71333 12.2333 2.89333 12.0666 3Z" fill="#0B236D"/>
</svg>
