<svg width="12" height="13" viewBox="0 0 12 13" fill="none" xmlns="http://www.w3.org/2000/svg">
<path d="M10.82 8.67334L9.12669 8.48C8.72003 8.43333 8.32003 8.57333 8.03336 8.86L6.80669 10.0867C4.92003 9.12667 3.37336 7.58667 2.41336 5.69333L3.64669 4.46C3.93336 4.17333 4.07336 3.77333 4.02669 3.36667L3.83336 1.68667C3.75336 1.01333 3.18669 0.506668 2.50669 0.506668H1.35336C0.600027 0.506668 -0.0266396 1.13333 0.0200271 1.88667C0.37336 7.58 4.92669 12.1267 10.6134 12.48C11.3667 12.5267 11.9934 11.9 11.9934 11.1467V9.99333C12 9.32 11.4934 8.75333 10.82 8.67334Z" fill="#0B236D"/>
</svg>
