<svg width="28" height="28" viewBox="0 0 28 28" fill="none" xmlns="http://www.w3.org/2000/svg">
<path d="M7.00016 10.5H5.25016C4.47661 10.5 3.73475 10.1927 3.18777 9.64572C2.64079 9.09874 2.3335 8.35687 2.3335 7.58332C2.3335 6.80977 2.64079 6.06791 3.18777 5.52093C3.73475 4.97395 4.47661 4.66666 5.25016 4.66666H7.00016" stroke="#F5B800" stroke-width="2.33333" stroke-linecap="round" stroke-linejoin="round"/>
<path d="M21 10.5H22.75C23.5235 10.5 24.2654 10.1927 24.8124 9.64572C25.3594 9.09874 25.6667 8.35687 25.6667 7.58332C25.6667 6.80977 25.3594 6.06791 24.8124 5.52093C24.2654 4.97395 23.5235 4.66666 22.75 4.66666H21" stroke="#F5B800" stroke-width="2.33333" stroke-linecap="round" stroke-linejoin="round"/>
<path d="M4.6665 25.6667H23.3332" stroke="#F5B800" stroke-width="2.33333" stroke-linecap="round" stroke-linejoin="round"/>
<path d="M11.6665 17.1033V19.8333C11.6665 20.475 11.1182 20.9767 10.5348 21.245C9.15817 21.875 8.1665 23.6133 8.1665 25.6667" stroke="#F5B800" stroke-width="2.33333" stroke-linecap="round" stroke-linejoin="round"/>
<path d="M16.3335 17.1033V19.8333C16.3335 20.475 16.8818 20.9767 17.4652 21.245C18.8418 21.875 19.8335 23.6133 19.8335 25.6667" stroke="#F5B800" stroke-width="2.33333" stroke-linecap="round" stroke-linejoin="round"/>
<path d="M21 2.33334H7V10.5C7 12.3565 7.7375 14.137 9.05025 15.4498C10.363 16.7625 12.1435 17.5 14 17.5C15.8565 17.5 17.637 16.7625 18.9497 15.4498C20.2625 14.137 21 12.3565 21 10.5V2.33334Z" stroke="#F5B800" stroke-width="2.33333" stroke-linecap="round" stroke-linejoin="round"/>
</svg>
