<svg width="25" height="24" viewBox="0 0 25 24" fill="none" xmlns="http://www.w3.org/2000/svg">
<g clip-path="url(#clip0_4_8376)">
<circle cx="12.5" cy="12" r="10.5" stroke="#F2F5F7" stroke-width="3"/>
<mask id="path-2-inside-1_4_8376" fill="white">
<path d="M12.5 0C14.0759 1.8792e-08 15.6363 0.310389 17.0922 0.913446C18.5481 1.5165 19.871 2.40042 20.9853 3.51472C22.0996 4.62902 22.9835 5.95189 23.5866 7.4078C24.1896 8.86371 24.5 10.4241 24.5 12H21.5428C21.5428 10.8125 21.3089 9.63661 20.8544 8.53949C20.4 7.44237 19.7339 6.44551 18.8942 5.60581C18.0545 4.76611 17.0576 4.10003 15.9605 3.64558C14.8634 3.19114 13.6875 2.95725 12.5 2.95725V0Z"/>
</mask>
<path d="M12.5 0C14.0759 1.8792e-08 15.6363 0.310389 17.0922 0.913446C18.5481 1.5165 19.871 2.40042 20.9853 3.51472C22.0996 4.62902 22.9835 5.95189 23.5866 7.4078C24.1896 8.86371 24.5 10.4241 24.5 12H21.5428C21.5428 10.8125 21.3089 9.63661 20.8544 8.53949C20.4 7.44237 19.7339 6.44551 18.8942 5.60581C18.0545 4.76611 17.0576 4.10003 15.9605 3.64558C14.8634 3.19114 13.6875 2.95725 12.5 2.95725V0Z" stroke="#4F97FF" stroke-width="6" mask="url(#path-2-inside-1_4_8376)"/>
</g>
<defs>
<clipPath id="clip0_4_8376">
<rect width="24" height="24" fill="white" transform="translate(0.5)"/>
</clipPath>
</defs>
</svg>
