<svg width="157" height="38" viewBox="0 0 157 38" fill="none" xmlns="http://www.w3.org/2000/svg">
<path d="M145.379 26.9845C145.356 26.9306 145.303 26.9047 145.217 26.9047H144.004C143.924 26.9047 143.873 26.9306 143.851 26.9845L141.742 31.0829C141.7 31.1605 141.734 31.1994 141.848 31.1994H142.93C143.01 31.1994 143.061 31.1735 143.083 31.1195L143.407 30.4509H145.822L146.146 31.1195C146.169 31.1735 146.217 31.1994 146.291 31.1994H147.391C147.493 31.1994 147.527 31.1605 147.496 31.0829L145.379 26.9845ZM143.836 29.5729L144.604 27.9897H144.629L145.396 29.5729H143.836ZM117.921 27.0017V27.7265C117.921 27.7912 117.879 27.8257 117.793 27.8257H116.33V31.1023C116.33 31.167 116.287 31.2015 116.202 31.2015H115.159C115.074 31.2015 115.032 31.1692 115.032 31.1023V27.8257H113.577C113.486 27.8257 113.441 27.7934 113.441 27.7265V27.0017C113.441 26.937 113.486 26.9025 113.577 26.9025H117.796C117.881 26.9025 117.924 26.9349 117.924 27.0017H117.921ZM108.661 27.0017V31.1001C108.661 31.1648 108.616 31.1994 108.525 31.1994H107.482C107.397 31.1994 107.355 31.167 107.355 31.1001V27.0017C107.355 26.937 107.397 26.9025 107.482 26.9025H108.525C108.616 26.9025 108.661 26.9349 108.661 27.0017ZM109.267 20.742V24.0099C109.267 24.2601 109 24.465 108.667 24.465H106.084C102.493 24.465 99.5297 23.6065 97.2765 21.9133C95.0206 20.2178 93.8784 18.0478 93.8784 15.4658C93.8784 12.8838 95.0092 10.7872 97.2424 9.09174C99.4757 7.3963 102.385 6.53779 105.894 6.53779H108.636C108.966 6.53779 109.235 6.74056 109.235 6.99293V10.2609C109.235 10.5111 108.968 10.716 108.636 10.716H106.053C104.056 10.716 102.51 11.1582 101.331 12.0685C100.149 12.9809 99.5723 14.0918 99.5723 15.4658C99.5723 16.8399 100.149 18.0025 101.331 18.9257C102.51 19.8425 104.064 20.289 106.084 20.289H108.667C108.997 20.289 109.267 20.4918 109.267 20.7441V20.742ZM127.403 27.0017V29.4565C127.403 30.0367 127.195 30.4854 126.78 30.8025C126.365 31.1195 125.78 31.277 125.027 31.277C124.274 31.277 123.689 31.1195 123.277 30.8025C122.865 30.4854 122.658 30.0367 122.658 29.4565V27.0017C122.658 26.937 122.7 26.9025 122.785 26.9025H123.828C123.919 26.9025 123.965 26.9349 123.965 27.0017V29.3874C123.965 29.711 124.053 29.9483 124.226 30.0993C124.402 30.2503 124.666 30.3258 125.022 30.3258C125.377 30.3258 125.644 30.2503 125.823 30.0993C126.002 29.9483 126.09 29.711 126.09 29.3874V27.0017C126.09 26.937 126.132 26.9025 126.218 26.9025H127.26C127.351 26.9025 127.397 26.9349 127.397 27.0017H127.403ZM115.938 24.4672H111.474C111.145 24.4672 110.875 24.2644 110.875 24.0121V6.99293C110.875 6.74271 111.142 6.53779 111.474 6.53779H115.938C116.268 6.53779 116.537 6.74056 116.537 6.99293V24.0121C116.537 24.2623 116.27 24.4672 115.938 24.4672ZM136.171 29.6657C136.472 29.5471 136.705 29.3766 136.867 29.1545C137.029 28.9323 137.108 28.6756 137.108 28.3844C137.108 27.9228 136.915 27.5604 136.526 27.2994C136.137 27.0384 135.597 26.9068 134.901 26.9068H132.687C132.602 26.9068 132.559 26.9392 132.559 27.0061V31.1045C132.559 31.1692 132.602 31.2037 132.687 31.2037H133.73C133.821 31.2037 133.866 31.1713 133.866 31.1045V29.8836H134.182C134.619 29.8836 134.957 29.9763 135.196 30.1597C135.435 30.343 135.611 30.6601 135.725 31.1109C135.742 31.1713 135.79 31.2037 135.869 31.2037H137.04C137.137 31.2037 137.176 31.167 137.162 31.0937C137.023 30.4271 136.691 29.9526 136.168 29.67L136.171 29.6657ZM134.869 28.9539H133.866V27.8193H134.869C135.466 27.8193 135.767 28.0069 135.767 28.3844C135.767 28.7619 135.469 28.9539 134.869 28.9539ZM124.925 10.716V13.5827H131.596C131.926 13.5827 132.196 13.7855 132.196 14.0379V17.185C132.196 17.4352 131.929 17.6401 131.596 17.6401H124.925V24.0121C124.925 24.2623 124.658 24.4672 124.325 24.4672H119.862C119.532 24.4672 119.262 24.2644 119.262 24.0121V6.99293C119.262 6.74271 119.529 6.53779 119.862 6.53779H132.011C132.341 6.53779 132.611 6.74056 132.611 6.99293V10.2609C132.611 10.5111 132.343 10.716 132.011 10.716H124.925ZM147.627 6.99293V10.2609C147.627 10.5111 147.36 10.716 147.027 10.716H139.941V13.5827H146.612C146.942 13.5827 147.212 13.7855 147.212 14.0379V17.185C147.212 17.4352 146.945 17.6401 146.612 17.6401H139.941V20.289H147.027C147.357 20.289 147.627 20.4918 147.627 20.7441V24.0121C147.627 24.2623 147.36 24.4672 147.027 24.4672H134.878C134.548 24.4672 134.278 24.2644 134.278 24.0121V6.99293C134.278 6.74271 134.545 6.53779 134.878 6.53779H147.027C147.357 6.53779 147.627 6.74056 147.627 6.99293ZM102.377 30.3883V31.1001C102.377 31.1648 102.334 31.1994 102.249 31.1994H98.4585C98.3733 31.1994 98.3306 31.167 98.3306 31.1001V27.0017C98.3306 26.937 98.3733 26.9025 98.4585 26.9025H102.217C102.303 26.9025 102.345 26.9349 102.345 27.0017V27.7136C102.345 27.7826 102.303 27.8171 102.217 27.8171H99.6405V28.6023H101.652C101.737 28.6023 101.78 28.6368 101.78 28.7058V29.3939C101.78 29.4629 101.737 29.4974 101.652 29.4974H99.6405V30.2826H102.252C102.337 30.2826 102.379 30.3171 102.379 30.3862L102.377 30.3883ZM146.084 0.668457H10.9162C4.89551 0.668457 0 4.38506 0 8.95585V28.764C0 33.3327 4.89551 37.0514 10.9162 37.0514H146.084C152.102 37.0514 157 33.3348 157 28.764V8.95585C157 4.38721 152.105 0.668457 146.084 0.668457ZM154.534 28.7619C154.534 32.2995 150.744 35.177 146.084 35.177H10.9162C6.25647 35.177 2.46622 32.2995 2.46622 28.7619V8.95585C2.46622 5.41828 6.25647 2.54078 10.9162 2.54078H146.084C150.744 2.54078 154.534 5.41828 154.534 8.95585V28.764V28.7619ZM74.3986 29.6635C74.6998 29.5449 74.9328 29.3745 75.0947 29.1523C75.2567 28.9301 75.3363 28.6735 75.3363 28.3822C75.3363 27.9206 75.143 27.5583 74.7538 27.2973C74.3645 27.0362 73.8247 26.9047 73.1286 26.9047H70.9152C70.83 26.9047 70.7874 26.937 70.7874 27.0039V31.1023C70.7874 31.167 70.83 31.2015 70.9152 31.2015H71.958C72.0489 31.2015 72.0944 31.1692 72.0944 31.1023V29.8814H72.4097C72.8473 29.8814 73.1854 29.9742 73.4241 30.1575C73.6627 30.3409 73.8389 30.6579 73.9526 31.1088C73.9696 31.1692 74.0179 31.2015 74.0975 31.2015H75.2681C75.3647 31.2015 75.4044 31.1648 75.3902 31.0915C75.251 30.425 74.9186 29.9504 74.3958 29.6679L74.3986 29.6635ZM73.0973 28.9517H72.0944V27.8171H73.0973C73.694 27.8171 73.9952 28.0048 73.9952 28.3822C73.9952 28.7597 73.6968 28.9517 73.0973 28.9517ZM84.4652 30.3883V31.1001C84.4652 31.1648 84.4226 31.1994 84.3374 31.1994H80.5471C80.4619 31.1994 80.4193 31.167 80.4193 31.1001V27.0017C80.4193 26.937 80.4619 26.9025 80.5471 26.9025H84.3061C84.3914 26.9025 84.434 26.9349 84.434 27.0017V27.7136C84.434 27.7826 84.3914 27.8171 84.3061 27.8171H81.7291V28.6023H83.7407C83.826 28.6023 83.8686 28.6368 83.8686 28.7058V29.3939C83.8686 29.4629 83.826 29.4974 83.7407 29.4974H81.7291V30.2826H84.3402C84.4255 30.2826 84.4681 30.3171 84.4681 30.3862L84.4652 30.3883ZM77.436 17.0469C78.1605 16.0094 78.527 14.8834 78.527 13.6992C78.527 11.7428 77.5894 10.0408 75.7369 8.64308C73.8844 7.24531 71.5318 6.53779 68.7445 6.53779H62.0164C61.6868 6.53779 61.4169 6.74056 61.4169 6.99293V24.0121C61.4169 24.2623 61.684 24.4672 62.0164 24.4672H66.48C66.8096 24.4672 67.0795 24.2644 67.0795 24.0121V20.8843H68.9036C69.1053 20.8843 69.3639 20.8757 69.6764 20.8563L70.5999 21.9564C71.4238 22.9292 72.333 23.6001 73.3019 23.9495C74.2622 24.2968 75.663 24.465 77.578 24.465C77.9076 24.465 78.1775 24.2623 78.1775 24.0099V20.742C78.1775 20.4918 77.9104 20.2868 77.578 20.2868C76.8876 20.2868 76.3392 20.2308 75.9528 20.1207C75.6204 20.0258 75.3135 19.8252 75.0493 19.5232L74.8845 19.3313C75.95 18.7165 76.8052 17.9486 77.436 17.0426V17.0469ZM71.7165 15.7613C70.9323 16.3157 70.0003 16.5832 68.8724 16.5832H67.0795V10.8346H68.8724C70.0003 10.8346 70.9294 11.1064 71.7165 11.6673C72.4893 12.2195 72.8672 12.8925 72.8672 13.7208C72.8672 14.5491 72.4921 15.2156 71.7193 15.7592L71.7165 15.7613ZM93.438 27.0017V27.7265C93.438 27.7912 93.3954 27.8257 93.3101 27.8257H90.7558V28.7209H92.9606C93.0459 28.7209 93.0885 28.7533 93.0885 28.8201V29.5384C93.0885 29.6075 93.0459 29.642 92.9606 29.642H90.7558V31.1023C90.7558 31.167 90.7104 31.2015 90.6194 31.2015H89.5767C89.4914 31.2015 89.4488 31.1692 89.4488 31.1023V27.0039C89.4488 26.9392 89.4914 26.9047 89.5767 26.9047H93.3101C93.3954 26.9047 93.438 26.937 93.438 27.0039V27.0017ZM93.5772 6.99293V10.2609C93.5772 10.5111 93.3101 10.716 92.9777 10.716H85.8916V13.5827H92.5629C92.8924 13.5827 93.1624 13.7855 93.1624 14.0379V17.185C93.1624 17.4352 92.8953 17.6401 92.5629 17.6401H85.8916V20.289H92.9777C93.3073 20.289 93.5772 20.4918 93.5772 20.7441V24.0121C93.5772 24.2623 93.3101 24.4672 92.9777 24.4672H80.8284C80.4988 24.4672 80.2289 24.2644 80.2289 24.0121V6.99293C80.2289 6.74271 80.496 6.53779 80.8284 6.53779H92.9777C93.3073 6.53779 93.5772 6.74056 93.5772 6.99293ZM63.7155 26.9047H61.5248C61.4396 26.9047 61.397 26.937 61.397 27.0039V31.1023C61.397 31.167 61.4396 31.2015 61.5248 31.2015H62.5676C62.6585 31.2015 62.704 31.1692 62.704 31.1023V29.931H63.7155C64.4173 29.931 64.9599 29.7973 65.3435 29.532C65.7299 29.2666 65.9203 28.8935 65.9203 28.4146C65.9203 27.9357 65.7271 27.5647 65.3435 27.3016C64.9571 27.0384 64.4144 26.9068 63.7155 26.9068V26.9047ZM63.6842 29.01H62.7068V27.8193H63.6842C64.278 27.8193 64.5735 28.0177 64.5735 28.4146C64.5735 28.8115 64.278 29.01 63.6842 29.01ZM31.2113 11.5918C33.1207 11.5918 34.9391 11.8894 36.5955 12.4265L36.0358 13.436C34.5527 12.9572 32.9246 12.6919 31.2113 12.6919C29.4981 12.6919 27.8672 12.9572 26.384 13.4382L25.8243 12.4287C27.4808 11.8916 29.302 11.5939 31.2113 11.5939V11.5918ZM22.8466 7.7177C22.9489 7.68319 23.0512 7.64436 23.1535 7.612C23.9235 7.36179 24.719 7.1504 25.5345 6.97352L25.3214 6.42131C25.1225 6.46445 24.9236 6.50975 24.7276 6.55721L24.8242 6.77938C24.6509 6.82037 24.4804 6.86782 24.3071 6.91312L24.2105 6.68879C24.0002 6.74271 23.7928 6.80095 23.5882 6.85919L23.7019 7.07921C23.5314 7.12883 23.3638 7.17844 23.1961 7.23236L23.0825 7.0145C23.0086 7.03823 22.9347 7.0598 22.8609 7.08353C22.7529 7.11804 22.6478 7.15687 22.5426 7.19354C22.5313 7.19785 22.5227 7.20001 22.5114 7.20432L22.8182 7.73064C22.8182 7.73064 22.8381 7.72417 22.8495 7.71986L22.8466 7.7177ZM28.0661 8.9882L27.6654 7.22589C27.0205 7.31433 26.384 7.42866 25.7618 7.56455L26.421 9.28156C26.958 9.16508 27.5063 9.06586 28.0661 8.9882ZM31.2113 8.76818C31.4926 8.76818 31.7711 8.77466 32.0495 8.78544L32.1831 6.99724C31.862 6.9843 31.5381 6.97783 31.2113 6.97783C30.8846 6.97783 30.5522 6.9843 30.2254 6.99724L30.359 8.78544C30.6402 8.77466 30.9244 8.76818 31.2113 8.76818ZM35.0101 6.0503C34.8254 6.02442 34.6408 6.00284 34.4561 5.98127L34.4135 6.21424C34.2345 6.19266 34.0526 6.17972 33.8736 6.16247L33.9191 5.92519C33.7287 5.90578 33.5355 5.88852 33.3423 5.87342L33.3139 6.1107C33.1349 6.09775 32.9502 6.08913 32.7712 6.07834L32.7996 5.83675C32.6263 5.82597 32.4501 5.81734 32.2768 5.81087L32.2342 6.38464C33.1349 6.41916 34.0185 6.49897 34.8851 6.61976L35.013 6.05246L35.0101 6.0503ZM30.18 6.38249L30.1373 5.80871C29.9583 5.81518 29.7793 5.82597 29.6003 5.83675L29.6259 6.07834C29.4441 6.08913 29.2622 6.0956 29.0832 6.1107L29.0577 5.87558C28.8645 5.89068 28.6712 5.90793 28.4809 5.92735L28.5235 6.16462C28.3445 6.18188 28.1627 6.19698 27.9837 6.21639L27.941 5.98559C27.7592 6.00716 27.5774 6.02873 27.3984 6.05461L27.5262 6.62192C28.3928 6.50112 29.2793 6.41916 30.18 6.38464V6.38249ZM39.5647 7.71339C39.5647 7.71339 39.5817 7.71986 39.5902 7.72201L39.8971 7.19569C39.8971 7.19569 39.8801 7.18922 39.8687 7.18707C39.7636 7.1504 39.6613 7.11157 39.5533 7.07921C39.4738 7.05333 39.3942 7.03176 39.3175 7.00587L39.201 7.22805C39.0334 7.17628 38.8629 7.12451 38.6952 7.0749L38.8117 6.85272C38.61 6.79448 38.4054 6.7384 38.2009 6.68447L38.1014 6.91096C37.9309 6.86566 37.7576 6.82037 37.5843 6.77723L37.6838 6.55289C37.4849 6.50544 37.286 6.46014 37.0871 6.41484L36.874 6.96705C37.6894 7.14608 38.4878 7.35532 39.2607 7.60553C39.3629 7.63789 39.4624 7.67672 39.5647 7.71123V7.71339ZM37.2831 11.1776C35.4164 10.5715 33.3622 10.2371 31.2085 10.2371C29.0548 10.2371 26.9977 10.5736 25.1282 11.1798L25.7277 12.2626C27.4126 11.7147 29.2651 11.4127 31.2057 11.4127C33.1462 11.4127 34.9959 11.7147 36.6808 12.2605L37.2803 11.1776H37.2831ZM37.9935 10.4248C37.9935 10.4248 38.0077 10.4291 38.0133 10.4313L38.2179 10.0818C38.2179 10.0818 38.2037 10.0775 38.1952 10.0732C38.1099 10.0452 38.0275 10.0128 37.9395 9.98476C35.8682 9.31392 33.5952 8.94291 31.2085 8.94291C28.8218 8.94291 26.5403 9.31608 24.469 9.98692C24.3809 10.015 24.2957 10.0473 24.2105 10.0754C24.2019 10.0775 24.1934 10.0818 24.1849 10.084L24.3895 10.4334C24.3895 10.4334 24.4065 10.427 24.4122 10.4248C24.4974 10.3968 24.5798 10.3666 24.6622 10.3385C26.6738 9.68493 28.8843 9.3247 31.2057 9.3247C33.527 9.3247 35.7318 9.68493 37.7434 10.3364C37.8258 10.3644 37.9082 10.3946 37.9906 10.4226L37.9935 10.4248ZM37.3741 11.0115L37.6553 10.5046C35.6721 9.86181 33.4957 9.5059 31.2085 9.5059C28.9213 9.5059 26.7392 9.86181 24.756 10.5068L25.0373 11.0137C25.0373 11.0137 25.0401 11.0137 25.0429 11.0137C25.0287 10.8217 25.1736 10.6362 25.4208 10.565C25.6709 10.4917 25.9436 10.5564 26.0999 10.7095C26.3641 10.6405 26.6284 10.5779 26.8983 10.5197C26.9125 10.3256 27.0858 10.153 27.3444 10.1034C27.6029 10.0538 27.8643 10.1444 27.995 10.3105C28.2479 10.2695 28.5008 10.235 28.7593 10.2048C28.7991 10.0085 29.0008 9.84887 29.2736 9.82298C29.5464 9.7971 29.7992 9.91789 29.8958 10.1034C30.1373 10.0883 30.3817 10.0775 30.626 10.0689C30.6914 9.87259 30.9244 9.72591 31.2 9.72591C31.4756 9.72591 31.7086 9.87259 31.7739 10.0689C32.0183 10.0754 32.2626 10.0861 32.507 10.1012C32.6064 9.91574 32.8564 9.79494 33.1292 9.82082C33.3991 9.84671 33.6008 10.0063 33.6406 10.2005C33.8963 10.2307 34.1521 10.2652 34.4049 10.3062C34.5385 10.1401 34.797 10.0516 35.0556 10.1012C35.3141 10.1509 35.4874 10.3213 35.5017 10.5154C35.7716 10.5736 36.0387 10.6383 36.3029 10.7052C36.462 10.5542 36.7319 10.4895 36.982 10.5628C37.2291 10.6362 37.3712 10.8195 37.3598 11.0094C37.3598 11.0094 37.3627 11.0094 37.3655 11.0094L37.3741 11.0115ZM25.2987 7.20648C24.6509 7.35747 24.0144 7.53004 23.395 7.72633C23.3439 7.74143 23.2927 7.75653 23.2416 7.77163L23.3723 8.0089C23.4234 7.99165 23.4746 7.9787 23.5257 7.9636C24.1337 7.77163 24.756 7.60122 25.3924 7.45238L25.2987 7.20432V7.20648ZM24.5315 9.77768C25.0486 9.61375 25.5799 9.46922 26.1198 9.34196L25.4606 7.62495C24.8327 7.76947 24.219 7.93772 23.6195 8.12754C23.5683 8.14264 23.5172 8.15774 23.4689 8.17284L24.3838 9.82082C24.4321 9.80573 24.4832 9.79063 24.5344 9.77553L24.5315 9.77768ZM30.0493 8.79623L29.9157 7.01019C29.2594 7.04254 28.6116 7.09863 27.9723 7.17844L28.3729 8.94075C28.9241 8.87172 29.4839 8.82427 30.0493 8.79407V8.79623ZM27.8757 6.74918L27.9325 7.00372C28.5803 6.92175 29.2367 6.86566 29.9015 6.83115L29.8816 6.57446C29.2026 6.60898 28.532 6.66722 27.8728 6.74918H27.8757ZM39.1726 7.76947C39.1214 7.75221 39.0675 7.73927 39.0163 7.72201C38.3969 7.52572 37.7605 7.35316 37.1127 7.20217L37.0189 7.45023C37.6553 7.59691 38.2776 7.76731 38.8856 7.95929C38.9368 7.97655 38.9907 7.98949 39.0419 8.00674L39.1726 7.76947ZM38.7918 8.12323C38.1923 7.93341 37.5786 7.76516 36.9507 7.62063L36.2915 9.33765C36.8342 9.46275 37.3627 9.60943 37.8826 9.77121C37.9338 9.78847 37.9878 9.80141 38.0389 9.81867L38.951 8.17068C38.8998 8.15342 38.8458 8.14048 38.7947 8.12323H38.7918ZM32.3592 8.79407C32.9275 8.82211 33.4872 8.86957 34.0384 8.93859L34.439 7.17628C33.7997 7.09647 33.1519 7.04039 32.4956 7.00803L32.3621 8.79407H32.3592ZM34.5328 6.74487C33.8736 6.6629 33.2031 6.60466 32.524 6.57015L32.5041 6.82684C33.169 6.85919 33.8282 6.91528 34.4731 6.99724L34.5299 6.74271L34.5328 6.74487ZM34.3424 8.97958C34.8993 9.05723 35.4477 9.1543 35.9875 9.27078L36.6467 7.55376C36.0244 7.41787 35.388 7.3057 34.7402 7.21511L34.3396 8.97742L34.3424 8.97958ZM31.2 17.2885C28.3559 17.2885 25.8527 18.4145 24.4093 20.1121H24.7475C26.1567 18.5396 28.5207 17.5064 31.2 17.5064C33.8793 17.5064 36.2432 18.5396 37.6525 20.1121H37.9906C36.5472 18.4145 34.0441 17.2885 31.2 17.2885ZM44.3465 11.6349C44.4517 11.6694 45.2302 11.3825 45.8126 11.5616C46.1763 11.6737 46.3241 11.8506 46.4633 12.0814C46.4746 11.6996 46.2161 11.5443 45.949 11.4343C45.5796 11.2833 44.5397 11.4516 44.5056 11.4429C44.4715 11.4343 44.088 10.5585 43.21 11.1668C44.2442 10.7893 44.2442 11.6004 44.3465 11.6349ZM31.4756 20.5025H31.0465V21.0461H30.322V21.3718H31.0465V22.8537H31.4756V21.3718H32.2001V21.0461H31.4756V20.5025ZM31.2 16.7622C27.9581 16.7622 25.1197 18.1125 23.5996 20.1121H23.9263C25.418 18.2355 28.12 16.9779 31.2028 16.9779C34.2856 16.9779 36.9848 18.2355 38.4765 20.1121H38.8032C37.2803 18.1104 34.4447 16.7622 31.2028 16.7622H31.2ZM23.1336 15.1703H39.2663V20.1056C37.7036 17.9292 34.672 16.4516 31.2 16.4516C27.7279 16.4516 24.6963 17.9313 23.1336 20.1056V15.1703ZM30.6033 15.7009L30.6658 15.7355L30.7937 15.8066L30.9215 15.8778L30.9727 15.9059L30.9215 16.0223L30.8306 16.2381L30.9215 16.1884L31.0494 16.1173L31.1772 16.0461L31.2 16.0331L31.3079 16.0935L31.4358 16.1647L31.5637 16.2359L31.5693 16.2402L31.5637 16.2251L31.4358 15.9253L31.4301 15.908L31.4358 15.9037L31.5637 15.8325L31.6944 15.7592L31.7966 15.7009H31.3364L31.3079 15.6298L31.2 15.3731L31.1772 15.4248L31.0579 15.7009H30.6033ZM37.1524 20.1143H25.2504C26.6 18.723 28.765 17.8192 31.2 17.8192C33.6349 17.8192 35.8 18.723 37.1496 20.1143H37.1524ZM31.8563 19.0055L31.8961 18.9948L31.9955 18.9689L32.0978 18.943L31.9955 18.902L31.8961 18.861L31.8336 18.8351L31.8961 18.7877L31.9955 18.71L32.0779 18.6453H31.7512L31.7938 18.5698L31.8705 18.4253L31.7938 18.4426L31.6915 18.4641L31.5921 18.4857L31.5665 18.49L31.5438 18.2549L31.4898 18.2916L31.3932 18.3541L31.3023 18.4124L31.2881 18.3908L31.1829 18.229V18.2247L31.0835 18.3606L31.0551 18.3994L30.984 18.3541L30.8818 18.2873L30.7908 18.2269L30.8107 18.5073L30.7823 18.4986L30.68 18.4684L30.5777 18.4382L30.5067 18.4167L30.5777 18.5267L30.6488 18.6345H30.2794L30.3732 18.7251L30.4783 18.8287L30.5039 18.8546L30.4783 18.8653L30.3732 18.9063L30.2766 18.943L30.2624 18.9495L30.2766 18.9538L30.3732 18.9883L30.4783 19.025L30.5238 19.0422L30.4783 19.0767L30.3732 19.1587L30.2766 19.2342L30.2624 19.245H30.6317L30.5777 19.3291L30.4868 19.4758L30.5777 19.4521L30.68 19.4262L30.7823 19.4003H30.7908L30.8107 19.6807L30.8818 19.6311L30.984 19.5578L31.075 19.493L31.0835 19.5038L31.1829 19.6376L31.2028 19.6634L31.2881 19.4779L31.3023 19.4477L31.3932 19.5211L31.4898 19.6009L31.5693 19.6656L31.5864 19.3701H31.5921L31.6915 19.4046L31.7938 19.437L31.8307 19.4499L31.7938 19.3722L31.7313 19.245H32.0552L31.9955 19.176L31.8961 19.0573L31.8563 19.0099V19.0055ZM38.593 29.1351C38.4196 29.0509 38.2009 28.9474 37.9082 28.9474C37.6156 28.9474 37.3968 29.0509 37.2235 29.1351C37.0729 29.2084 36.9535 29.2645 36.8058 29.2645C36.6581 29.2645 36.5387 29.2062 36.3881 29.1351C36.2148 29.0509 35.996 28.9474 35.7034 28.9474C35.4107 28.9474 35.192 29.0509 35.0186 29.1351C34.8681 29.2084 34.7487 29.2645 34.601 29.2645C34.4532 29.2645 34.3339 29.2062 34.1833 29.1351C34.01 29.0509 33.7912 28.9474 33.4986 28.9474C33.2059 28.9474 32.9871 29.0509 32.8138 29.1351C32.6632 29.2084 32.5439 29.2645 32.3961 29.2645C32.2484 29.2645 32.1291 29.2062 31.9785 29.1351C31.8052 29.0509 31.5864 28.9474 31.2937 28.9474C31.0011 28.9474 30.7823 29.0509 30.609 29.1351C30.4584 29.2084 30.3391 29.2645 30.1913 29.2645C30.0436 29.2645 29.9242 29.2062 29.7737 29.1351C29.6003 29.0509 29.3816 28.9474 29.0889 28.9474C28.7963 28.9474 28.5775 29.0509 28.4042 29.1351C28.2536 29.2084 28.1342 29.2645 27.9865 29.2645C27.8388 29.2645 27.7194 29.2062 27.5688 29.1351C27.3955 29.0509 27.1767 28.9474 26.8841 28.9474C26.5914 28.9474 26.3727 29.0509 26.1993 29.1351C26.0488 29.2084 25.9294 29.2645 25.7817 29.2645C25.6339 29.2645 25.5146 29.2062 25.364 29.1351C25.1907 29.0509 24.9719 28.9474 24.6793 28.9474C24.3866 28.9474 24.1678 29.0509 23.9945 29.1351C23.8439 29.2084 23.7246 29.2645 23.5769 29.2645C23.4291 29.2645 23.3098 29.2062 23.1592 29.1351C23.1535 29.1329 23.1478 29.1286 23.1421 29.1264V29.5061C23.2672 29.5535 23.4064 29.5902 23.5769 29.5902C23.8525 29.5902 24.0542 29.4931 24.2303 29.409C24.3838 29.3357 24.5145 29.2731 24.6793 29.2731C24.8441 29.2731 24.9748 29.3357 25.1282 29.409C25.3043 29.4931 25.5061 29.5902 25.7817 29.5902C26.0573 29.5902 26.259 29.4931 26.4352 29.409C26.5886 29.3357 26.7193 29.2731 26.8841 29.2731C27.0489 29.2731 27.1796 29.3357 27.333 29.409C27.5092 29.4931 27.7109 29.5902 27.9865 29.5902C28.2621 29.5902 28.4638 29.4931 28.64 29.409C28.7934 29.3357 28.9241 29.2731 29.0889 29.2731C29.2537 29.2731 29.3844 29.3357 29.5378 29.409C29.714 29.4931 29.9157 29.5902 30.1913 29.5902C30.4669 29.5902 30.6687 29.4931 30.8448 29.409C30.9982 29.3357 31.1289 29.2731 31.2937 29.2731C31.4585 29.2731 31.5892 29.3357 31.7427 29.409C31.9188 29.4931 32.1205 29.5902 32.3961 29.5902C32.6718 29.5902 32.8735 29.4931 33.0496 29.409C33.2031 29.3357 33.3338 29.2731 33.4986 29.2731C33.6634 29.2731 33.7941 29.3357 33.9475 29.409C34.1236 29.4931 34.3254 29.5902 34.601 29.5902C34.8766 29.5902 35.0783 29.4931 35.2545 29.409C35.4079 29.3357 35.5386 29.2731 35.7034 29.2731C35.8682 29.2731 35.9989 29.3357 36.1523 29.409C36.3285 29.4931 36.5302 29.5902 36.8058 29.5902C37.0814 29.5902 37.2831 29.4931 37.4593 29.409C37.6127 29.3357 37.7434 29.2731 37.9082 29.2731C38.073 29.2731 38.2037 29.3357 38.3571 29.409C38.5333 29.4931 38.735 29.5902 39.0106 29.5902C39.1072 29.5902 39.1953 29.5773 39.2749 29.56V29.2062C39.1868 29.2429 39.1044 29.2645 39.0106 29.2645C38.8629 29.2645 38.7435 29.2062 38.593 29.1351ZM38.593 29.7714C38.4196 29.6873 38.2009 29.5837 37.9082 29.5837C37.6156 29.5837 37.3968 29.6873 37.2235 29.7714C37.0729 29.8447 36.9535 29.9008 36.8058 29.9008C36.6581 29.9008 36.5387 29.8426 36.3881 29.7714C36.2148 29.6873 35.996 29.5837 35.7034 29.5837C35.4107 29.5837 35.192 29.6873 35.0186 29.7714C34.8681 29.8447 34.7487 29.9008 34.601 29.9008C34.4532 29.9008 34.3339 29.8426 34.1833 29.7714C34.01 29.6873 33.7912 29.5837 33.4986 29.5837C33.2059 29.5837 32.9871 29.6873 32.8138 29.7714C32.6632 29.8447 32.5439 29.9008 32.3961 29.9008C32.2484 29.9008 32.1291 29.8426 31.9785 29.7714C31.8052 29.6873 31.5864 29.5837 31.2937 29.5837C31.0011 29.5837 30.7823 29.6873 30.609 29.7714C30.4584 29.8447 30.3391 29.9008 30.1913 29.9008C30.0436 29.9008 29.9242 29.8426 29.7737 29.7714C29.6003 29.6873 29.3816 29.5837 29.0889 29.5837C28.7963 29.5837 28.5775 29.6873 28.4042 29.7714C28.2536 29.8447 28.1342 29.9008 27.9865 29.9008C27.8388 29.9008 27.7194 29.8426 27.5688 29.7714C27.3955 29.6873 27.1767 29.5837 26.8841 29.5837C26.5914 29.5837 26.3727 29.6873 26.1993 29.7714C26.0488 29.8447 25.9294 29.9008 25.7817 29.9008C25.6339 29.9008 25.5146 29.8426 25.364 29.7714C25.1907 29.6873 24.9719 29.5837 24.6793 29.5837C24.3866 29.5837 24.1678 29.6873 23.9945 29.7714C23.8439 29.8447 23.7246 29.9008 23.5769 29.9008C23.4291 29.9008 23.3098 29.8426 23.1592 29.7714C23.1592 29.7714 23.1563 29.7714 23.1535 29.7692C23.1649 29.8663 23.1848 29.9547 23.2132 30.0346C23.2331 30.0885 23.2558 30.1381 23.2842 30.1855C23.3723 30.2093 23.4689 30.2244 23.5769 30.2244C23.8525 30.2244 24.0542 30.1273 24.2332 30.0432C24.3866 29.9698 24.5173 29.9073 24.6821 29.9073C24.8469 29.9073 24.9776 29.9698 25.131 30.0432C25.3072 30.1295 25.5089 30.2244 25.7845 30.2244C26.0601 30.2244 26.2618 30.1273 26.4408 30.0432C26.5943 29.9698 26.725 29.9073 26.8898 29.9073C27.0546 29.9073 27.1853 29.9698 27.3387 30.0432C27.5149 30.1295 27.7166 30.2244 27.9922 30.2244C28.2678 30.2244 28.4695 30.1273 28.6485 30.0432C28.8019 29.9698 28.9326 29.9073 29.0974 29.9073C29.2622 29.9073 29.3929 29.9698 29.5464 30.0432C29.7225 30.1295 29.9242 30.2244 30.1999 30.2244C30.4755 30.2244 30.6772 30.1273 30.8562 30.0432C31.0096 29.9698 31.1403 29.9073 31.3051 29.9073C31.4699 29.9073 31.6006 29.9698 31.754 30.0432C31.9302 30.1295 32.1319 30.2244 32.4075 30.2244C32.6831 30.2244 32.8848 30.1273 33.0639 30.0432C33.2173 29.9698 33.348 29.9073 33.5128 29.9073C33.6776 29.9073 33.8083 29.9698 33.9617 30.0432C34.1378 30.1295 34.3396 30.2244 34.6152 30.2244C34.8908 30.2244 35.0925 30.1273 35.2715 30.0432C35.4249 29.9698 35.5556 29.9073 35.7204 29.9073C35.8852 29.9073 36.0159 29.9698 36.1694 30.0432C36.3455 30.1295 36.5472 30.2244 36.8228 30.2244C37.0985 30.2244 37.3002 30.1273 37.4792 30.0432C37.6326 29.9698 37.7633 29.9073 37.9281 29.9073C38.0929 29.9073 38.2236 29.9698 38.377 30.0432C38.5532 30.1295 38.7549 30.2244 39.0305 30.2244C39.0646 30.2244 39.0987 30.2244 39.1328 30.2201C39.1669 30.1618 39.1982 30.1014 39.2237 30.0346C39.2436 29.9763 39.2607 29.9159 39.272 29.8512C39.1925 29.8814 39.1186 29.9008 39.0305 29.9008C38.8828 29.9008 38.7634 29.8426 38.6128 29.7714H38.593ZM15.948 14.4757C16.5703 14.6958 16.9311 14.7691 17.4255 15.1552C17.8773 15.509 18.5222 15.6039 19.0052 15.2588C19.4883 14.9136 19.6303 14.8122 19.6303 14.8122C19.6303 14.8122 20.0622 14.9201 20.4685 14.782C20.6617 15.0603 20.7185 15.9468 18.7183 15.6643C19.4797 16.1863 21.2925 16.0331 20.8748 14.4779C21.0481 14.3334 21.0225 14.0184 20.9828 13.6733C20.9146 13.0995 21.1049 12.9895 21.1021 12.6811C21.0936 12.3683 21.0055 12.1655 20.5793 11.8355C20.1531 11.5055 19.8491 11.3976 19.6701 11.3868C19.619 11.3868 19.5195 11.4321 19.5195 11.4321C19.5195 11.4321 20.2355 11.6931 20.4657 12.0253C20.7015 12.3554 20.5708 12.8299 20.4941 13.1233C20.4145 13.4188 20.5111 13.669 20.6305 13.8567C20.7555 14.0465 20.8805 14.2816 20.6219 14.4908C20.3662 14.7022 19.7184 14.5707 19.7184 14.5707C19.7184 14.5707 19.5394 14.3744 19.6559 14.1306C19.7752 13.8933 19.9741 13.7812 19.9656 13.6453C19.9542 13.5115 19.7497 13.4209 19.5394 13.257C19.3263 13.0952 19.1331 12.7544 19.2354 12.5948C19.3348 12.4309 19.4826 12.3036 19.7355 12.241C19.9855 12.1785 20.0537 12.0793 19.9457 11.9412C19.8377 11.7967 19.5479 11.8118 19.3519 11.952C19.1615 12.0922 18.8632 12.405 18.9626 12.7781C19.0678 13.1513 19.3746 13.4188 19.5479 13.5827C19.7269 13.7423 19.4939 13.958 19.0933 14.0249C18.6927 14.0983 18.4455 14.0724 18.3972 14.0314C18.3518 13.9904 18.3603 13.7294 18.2949 13.4339C18.2267 13.1384 17.6358 12.8342 17.1527 12.8429C16.6697 12.8472 16.3771 12.9313 16.4822 13.1945C16.7578 13.5331 17.3062 13.1319 17.3062 13.1319C17.3062 13.1319 17.775 13.3152 17.9398 13.6021C18.0989 13.8933 18.0449 14.1889 18.2779 14.2385C18.5052 14.2859 19.0393 14.1565 19.1757 14.2924C19.3235 14.4283 19.3689 14.6332 19.3689 14.6332C19.3689 14.6332 18.6217 15.4701 17.8687 15.1466C17.559 15.0128 17.1471 14.7044 16.6782 14.4757C16.2123 14.2514 15.681 14.1802 15.681 13.5741C15.681 12.968 15.7264 12.804 15.8372 12.4244C15.9509 12.0447 15.9509 11.6284 16.6044 11.5659C17.2635 11.5033 17.9256 11.5896 18.0364 11.5529C18.1472 11.5163 18.1472 10.6599 19.2411 11.059C18.312 10.4162 17.9085 11.3415 17.8716 11.3523C17.8346 11.361 16.6214 11.1927 16.2322 11.3523C15.8429 11.512 15.7349 11.6824 15.4622 12.6703C15.2036 13.6043 15.323 14.2579 15.9424 14.4757H15.948ZM20.71 16.9844C21.0282 17.5646 21.193 18.009 21.193 18.009C20.4515 17.2929 19.7269 17.1462 19.3945 16.8485C19.3292 17.3468 19.4371 17.6941 19.4371 17.6941C19.4371 17.6941 18.6529 17.3662 18.2267 16.5918C18.1955 17.116 18.5137 17.9745 20.2242 18.2873C19.7951 17.8494 19.7781 17.4913 19.7781 17.4913C19.7781 17.4913 20.6816 17.9119 21.676 18.8697C21.7329 17.9615 21.5311 17.446 20.71 16.9865V16.9844ZM38.5901 28.503C38.4168 28.4189 38.198 28.3154 37.9054 28.3154C37.6127 28.3154 37.3939 28.4189 37.2206 28.503C37.07 28.5764 36.9507 28.6325 36.803 28.6325C36.6552 28.6325 36.5359 28.5742 36.3853 28.503C36.212 28.4189 35.9932 28.3154 35.7005 28.3154C35.4079 28.3154 35.1891 28.4189 35.0158 28.5052C34.8652 28.5785 34.7459 28.6346 34.5981 28.6346C34.4504 28.6346 34.3311 28.5764 34.1805 28.5052C34.0071 28.4211 33.7884 28.3175 33.4957 28.3175C33.2031 28.3175 32.9843 28.4211 32.811 28.5052C32.6604 28.5785 32.5411 28.6346 32.3933 28.6346C32.2456 28.6346 32.1262 28.5764 31.9756 28.5052C31.8023 28.4211 31.5835 28.3175 31.2909 28.3175C30.9982 28.3175 30.7795 28.4211 30.6062 28.5052C30.4556 28.5785 30.3362 28.6346 30.1885 28.6346C30.0407 28.6346 29.9214 28.5764 29.7708 28.5052C29.5975 28.4211 29.3787 28.3175 29.0861 28.3175C28.7934 28.3175 28.5746 28.4211 28.4013 28.5052C28.2507 28.5785 28.1314 28.6346 27.9837 28.6346C27.8359 28.6346 27.7166 28.5764 27.566 28.5052C27.3927 28.4211 27.1739 28.3175 26.8812 28.3175C26.5886 28.3175 26.3698 28.4211 26.1965 28.5052C26.0459 28.5785 25.9266 28.6346 25.7788 28.6346C25.6311 28.6346 25.5118 28.5764 25.3612 28.5052C25.1879 28.4211 24.9691 28.3175 24.6764 28.3175C24.3838 28.3175 24.165 28.4211 23.9917 28.5052C23.8411 28.5785 23.7218 28.6346 23.574 28.6346C23.4263 28.6346 23.3069 28.5764 23.1563 28.5052C23.1507 28.503 23.145 28.4987 23.1393 28.4966V28.8762C23.2643 28.9237 23.4035 28.9603 23.574 28.9603C23.8496 28.9603 24.0513 28.8633 24.2303 28.7791C24.3838 28.7058 24.5145 28.6433 24.6793 28.6433C24.8441 28.6433 24.9748 28.7058 25.1282 28.7791C25.3043 28.8654 25.5061 28.9603 25.7817 28.9603C26.0573 28.9603 26.259 28.8633 26.438 28.7791C26.5914 28.7058 26.7221 28.6433 26.8869 28.6433C27.0517 28.6433 27.1824 28.7058 27.3358 28.7791C27.512 28.8654 27.7137 28.9603 27.9893 28.9603C28.2649 28.9603 28.4667 28.8633 28.6457 28.7791C28.7991 28.7058 28.9298 28.6433 29.0946 28.6433C29.2594 28.6433 29.3901 28.7058 29.5435 28.7791C29.7197 28.8654 29.9214 28.9603 30.197 28.9603C30.4726 28.9603 30.6743 28.8633 30.8533 28.7791C31.0068 28.7058 31.1375 28.6433 31.3023 28.6433C31.4671 28.6433 31.5978 28.7058 31.7512 28.7791C31.9273 28.8654 32.1291 28.9603 32.4047 28.9603C32.6803 28.9603 32.882 28.8633 33.061 28.7791C33.2144 28.7058 33.3451 28.6433 33.5099 28.6433C33.6747 28.6433 33.8054 28.7058 33.9588 28.7791C34.135 28.8654 34.3367 28.9603 34.6123 28.9603C34.8879 28.9603 35.0897 28.8633 35.2687 28.7791C35.4221 28.7058 35.5528 28.6433 35.7176 28.6433C35.8824 28.6433 36.0131 28.7058 36.1665 28.7791C36.3427 28.8654 36.5444 28.9603 36.82 28.9603C37.0956 28.9603 37.2973 28.8633 37.4763 28.7791C37.6298 28.7058 37.7605 28.6433 37.9253 28.6433C38.0901 28.6433 38.2208 28.7058 38.3742 28.7791C38.5503 28.8654 38.7521 28.9603 39.0277 28.9603C39.1243 28.9603 39.2124 28.9474 39.2919 28.9301V28.5764C39.2038 28.6131 39.1214 28.6368 39.0277 28.6368C38.8799 28.6368 38.7606 28.5785 38.61 28.5074L38.5901 28.503ZM37.9054 30.2244C37.6127 30.2244 37.3939 30.3279 37.2206 30.412C37.07 30.4854 36.9507 30.5415 36.803 30.5415C36.6552 30.5415 36.5359 30.4832 36.3853 30.412C36.212 30.3279 35.9932 30.2244 35.7005 30.2244C35.4079 30.2244 35.1891 30.3279 35.0158 30.412C34.8652 30.4854 34.7459 30.5415 34.5981 30.5415C34.4504 30.5415 34.3311 30.4832 34.1805 30.412C34.0071 30.3279 33.7884 30.2244 33.4957 30.2244C33.2031 30.2244 32.9843 30.3279 32.811 30.412C32.6604 30.4854 32.5411 30.5415 32.3933 30.5415C32.2456 30.5415 32.1262 30.4832 31.9756 30.412C31.8023 30.3279 31.5835 30.2244 31.2909 30.2244C30.9982 30.2244 30.7795 30.3279 30.6062 30.412C30.4556 30.4854 30.3362 30.5415 30.1885 30.5415C30.0407 30.5415 29.9214 30.4832 29.7708 30.412C29.5975 30.3279 29.3787 30.2244 29.0861 30.2244C28.7934 30.2244 28.5746 30.3279 28.4013 30.412C28.2507 30.4854 28.1314 30.5415 27.9837 30.5415C27.8359 30.5415 27.7166 30.4832 27.566 30.412C27.3927 30.3279 27.1739 30.2244 26.8812 30.2244C26.5886 30.2244 26.3698 30.3279 26.1965 30.412C26.0459 30.4854 25.9266 30.5415 25.7788 30.5415C25.6311 30.5415 25.5118 30.4832 25.3612 30.412C25.1879 30.3279 24.9691 30.2244 24.6764 30.2244C24.3838 30.2244 24.165 30.3279 23.9917 30.412C23.8468 30.4811 23.7331 30.535 23.5939 30.5415C23.7331 30.6428 23.8951 30.7119 24.0627 30.7615C24.1195 30.7377 24.1764 30.7119 24.2275 30.686C24.3809 30.6126 24.5116 30.5501 24.6764 30.5501C24.8412 30.5501 24.9719 30.6126 25.1253 30.686C25.2901 30.7658 25.4748 30.8521 25.722 30.865H25.8357C26.0828 30.8521 26.2675 30.7658 26.4323 30.686C26.5858 30.6126 26.7165 30.5501 26.8812 30.5501C27.046 30.5501 27.1767 30.6126 27.3302 30.686C27.495 30.7658 27.6796 30.8521 27.9268 30.865H28.0405C28.2877 30.8521 28.4724 30.7658 28.6372 30.686C28.7906 30.6126 28.9213 30.5501 29.0861 30.5501C29.2509 30.5501 29.3816 30.6126 29.535 30.686C29.6998 30.7658 29.8845 30.8521 30.1317 30.865H30.2453C30.4925 30.8521 30.6772 30.7658 30.842 30.686C30.9954 30.6126 31.1261 30.5501 31.2909 30.5501C31.4557 30.5501 31.5864 30.6126 31.7398 30.686C31.9046 30.7658 32.0893 30.8521 32.3365 30.865H32.4501C32.6973 30.8521 32.882 30.7658 33.0468 30.686C33.2002 30.6126 33.3309 30.5501 33.4957 30.5501C33.6605 30.5501 33.7912 30.6126 33.9446 30.686C34.1094 30.7658 34.2941 30.8521 34.5413 30.865H34.655C34.9021 30.8521 35.0868 30.7658 35.2516 30.686C35.4051 30.6126 35.5358 30.5501 35.7005 30.5501C35.8653 30.5501 35.996 30.6126 36.1495 30.686C36.3143 30.7658 36.4989 30.8521 36.7461 30.865H36.8598C37.107 30.8521 37.2917 30.7658 37.4565 30.686C37.6099 30.6126 37.7406 30.5501 37.9054 30.5501C38.0702 30.5501 38.2009 30.6126 38.3543 30.686C38.3827 30.7011 38.414 30.714 38.4452 30.7291C38.5901 30.6795 38.7265 30.6105 38.8458 30.5177C38.7634 30.494 38.6839 30.4552 38.5901 30.412C38.4168 30.3279 38.198 30.2244 37.9054 30.2244ZM51.1656 15.7851C51.1656 16.6199 52.2225 17.3727 53.3391 18.1686C54.6291 19.0875 55.9616 20.0366 55.9616 21.2726C55.9616 21.8507 55.6178 22.3554 54.9672 22.7286C54.6035 22.9379 54.2427 23.0522 54.0779 23.0975C54.0779 23.4426 54.0296 23.7554 53.9813 24.0401C53.9188 24.4176 53.8676 24.7433 53.9671 25.0021C54.075 25.2847 54.595 25.6471 55.0155 25.9362C55.257 26.1044 55.4673 26.2511 55.5724 26.3633C55.7968 26.6048 55.686 27.1225 55.5667 27.6704C55.5212 27.8861 55.4758 28.091 55.4616 28.255C55.4474 28.4211 55.4474 28.6152 55.4445 28.8244C55.4445 29.3076 55.4445 29.8059 55.257 30.0906C55.0041 30.4746 54.1944 30.9664 53.5437 31.1411C53.4784 31.1627 53.4102 31.1821 53.3363 31.1994C53.3107 31.2058 53.2852 31.2123 53.2596 31.2188C53.2425 31.2252 53.2227 31.2317 53.2056 31.2382C53.2056 31.2382 53.2056 31.236 53.2056 31.2339V31.2382C53.18 31.2468 53.1545 31.2533 53.1289 31.2598C53.0806 31.2727 53.0294 31.2878 52.9811 31.2986C52.9811 31.2986 52.9811 31.2943 52.9811 31.29V31.2986C52.9158 31.3137 52.8476 31.3245 52.7823 31.3353C52.7737 31.3353 52.7624 31.3374 52.7538 31.3396C52.5748 31.3719 52.3845 31.3849 52.1487 31.3698C52.0918 31.3676 52.0378 31.3633 51.981 31.359V31.3547V31.359C51.927 31.3547 51.8759 31.3482 51.8219 31.3417V31.3353V31.3417C51.8191 31.3417 51.8162 31.3417 51.8105 31.3417C51.7338 31.3309 51.6571 31.3158 51.5804 31.3007C51.5804 31.3007 51.5804 31.3007 51.5804 31.2964V31.3007C51.5491 31.2943 51.5207 31.2856 51.4923 31.2792C51.4753 31.2749 51.4582 31.2727 51.4412 31.2684C50.7962 31.1325 50.5689 30.9707 50.4893 30.7981C50.3416 30.5199 50.4837 30.1316 50.7138 29.9461C51.0633 29.6635 52.9982 29.5233 53.3278 28.9323C53.6602 28.3391 53.3278 27.4073 53.3278 27.4073C53.3278 27.4073 52.9982 27.2671 51.4724 26.676C50.4751 26.2878 49.8302 25.6708 49.4523 24.9482C49.1909 25.028 48.6624 25.2049 48.1737 25.4767C47.489 25.8563 47.1736 26.4085 47.1565 26.8292C47.1367 27.2541 47.3213 27.5345 47.1367 28.0285C46.9548 28.5246 46.2104 28.6756 45.7103 29.0984C45.2898 29.4521 44.5681 30.1208 44.4914 30.1985C44.4147 30.2761 44.3068 30.3775 44.1249 30.4918C43.9971 30.5717 41.994 30.8132 40.9995 30.6925C40.5847 30.6428 40.8944 30.1661 41.2098 29.7779C41.8888 28.9409 43.6163 28.5785 44.5085 27.7481C45.3921 26.9155 44.5426 26.072 44.5426 25.0561C44.5426 24.0401 45.7132 23.3563 45.7132 23.3563C44.8125 22.7869 43.7357 22.7006 42.5878 21.965C41.0478 22.8969 41.2638 24.2084 41.0393 24.8835C40.9114 25.2761 40.5307 25.591 40.0193 25.7571C40.0079 25.7614 39.9937 25.7636 39.9823 25.7679V27.0729H39.988V29.4974C39.988 29.6851 39.9681 29.849 39.9369 30.0022C39.8488 30.4379 39.6414 30.7399 39.3743 30.9448C39.309 30.9944 39.2408 31.0419 39.1669 31.0807C38.681 31.3482 38.0673 31.3892 37.5729 31.3892H24.8355C24.3525 31.3892 23.7559 31.3504 23.2785 31.098C23.1734 31.0419 23.0739 30.9729 22.9802 30.8952C22.7387 30.6881 22.5568 30.3969 22.4773 29.9849C22.4489 29.8361 22.429 29.6765 22.429 29.4953V27.0708V25.7765C22.4176 25.7722 22.4062 25.7701 22.3977 25.7679C21.8863 25.6018 21.5027 25.2869 21.3777 24.8943C21.1532 24.2191 21.2839 23.8071 20.9146 23.3175C20.6901 22.9551 20.3009 22.7027 19.9485 22.5345C19.7269 22.6876 19.2865 22.9206 18.4711 23.1341C17.076 23.503 16.8715 23.5159 16.8715 23.5159C16.8715 23.5159 17.8744 24.0487 17.8744 25.0669C17.8744 26.085 17.0249 26.9241 17.9085 27.7589C18.8007 28.5893 20.531 28.9517 21.2072 29.7886C21.5226 30.1791 21.8323 30.6536 21.4175 30.7032C20.423 30.824 18.4228 30.5803 18.2921 30.5026C18.1102 30.3883 18.0023 30.2869 17.9256 30.2093C17.8489 30.1316 17.1272 29.4651 16.7067 29.1092C16.2066 28.6864 15.4622 28.5332 15.2803 28.0393C15.0957 27.5453 15.2803 27.2649 15.2605 26.84C15.2434 26.4193 14.928 25.8671 14.2433 25.4875C13.7546 25.2157 13.2261 25.0388 12.9647 24.959C12.5868 25.6795 11.9419 26.2985 10.9446 26.6868C9.41881 27.2778 9.08922 27.418 9.08922 27.418C9.08922 27.418 8.75679 28.3499 9.08922 28.9431C9.41881 29.5341 11.3509 29.6743 11.7032 29.9569C11.9333 30.1424 12.0754 30.5307 11.9276 30.8089C11.8481 30.9815 11.6208 31.1433 10.9758 31.2792C10.9588 31.2835 10.9417 31.2856 10.9247 31.29C10.8963 31.2964 10.865 31.3051 10.8366 31.3115V31.3072V31.3115C10.7599 31.3288 10.686 31.3417 10.6065 31.3525C10.6036 31.3525 10.6008 31.3525 10.5951 31.3525V31.346V31.3525C10.544 31.359 10.49 31.3655 10.436 31.3698V31.3655V31.3698C10.3792 31.3741 10.3252 31.3784 10.2683 31.3806C10.0325 31.3957 9.84216 31.3806 9.66316 31.3504C9.65463 31.3504 9.64327 31.3504 9.63474 31.346C9.56939 31.3353 9.5012 31.3245 9.43585 31.3094V31.3007V31.3094C9.38471 31.2986 9.33641 31.2856 9.28811 31.2705C9.26254 31.2641 9.23697 31.2576 9.21139 31.249V31.2447V31.249C9.1915 31.2425 9.17446 31.236 9.15741 31.2296C9.13184 31.2231 9.10627 31.2166 9.0807 31.2101C9.00966 31.1929 8.94147 31.1713 8.87328 31.1519C8.22263 30.9772 7.41287 30.4854 7.16 30.1014C6.97247 29.8167 6.97247 29.3163 6.97247 28.8352C6.97247 28.6282 6.97247 28.4319 6.95543 28.2679C6.94122 28.1061 6.89576 27.9012 6.8503 27.6834C6.73097 27.1355 6.62016 26.6178 6.84462 26.3762C6.94974 26.264 7.16 26.1173 7.40151 25.9491C7.81917 25.6579 8.34197 25.2977 8.44993 25.0151C8.54938 24.7562 8.49539 24.4284 8.43573 24.0509C8.39027 23.7662 8.33912 23.4534 8.33912 23.1083C8.17433 23.063 7.81065 22.9486 7.44981 22.7394C6.79916 22.3641 6.45536 21.8615 6.45536 21.2834C6.45536 20.0474 7.78792 19.0983 9.07786 18.1794C10.1973 17.3813 11.2514 16.6285 11.2514 15.7959C11.2514 15.3342 11.0724 15.0279 10.7372 14.9136C10.6434 14.8813 10.5354 14.864 10.4246 14.864C10.2939 14.877 10.1178 14.9201 9.94728 15.0452C9.71714 15.2135 9.47279 15.7721 9.35062 16.2014C9.23981 16.5875 8.68292 17.735 6.36728 16.8981C8.80793 17.1268 7.65154 14.7109 10.2399 14.6461C10.4587 14.6246 10.6746 14.6418 10.8593 14.7065C11.1747 14.8144 11.5498 15.0927 11.5498 15.7959C11.5498 16.7277 10.4473 17.5129 9.27958 18.3455C8.03795 19.232 6.7537 20.1466 6.7537 21.2834C6.7537 21.7925 7.04635 22.2196 7.62313 22.5539C7.89873 22.7135 8.17717 22.8127 8.35049 22.8667C8.35617 22.7825 8.3647 22.6941 8.3789 22.6057C8.39027 22.5302 8.41016 22.4568 8.43289 22.3856C7.75098 22.2454 7.37309 21.8723 7.36741 21.3158C7.35605 20.22 8.4613 19.4262 9.52962 18.6583C10.6462 17.858 11.7998 17.0275 11.7998 15.8325C11.7998 15.0776 11.4389 14.6009 10.7599 14.452C10.0581 14.2989 9.13184 14.5383 8.68576 14.8705C8.68008 14.8748 8.67155 14.8813 8.66587 14.8856C8.64314 14.9028 8.62325 14.9179 8.6062 14.9352C8.59768 14.9417 8.592 14.9481 8.58347 14.9546C8.56074 14.9762 8.53801 14.9999 8.52097 15.0215C7.96692 15.6168 7.84474 16.773 6.69403 16.5702C7.80781 16.0806 7.08897 15.7462 8.44141 14.7346C8.45562 14.7216 8.47266 14.7109 8.48971 14.6979C8.49824 14.6914 8.50676 14.685 8.51812 14.6763C9.04944 14.3053 10.0354 14.053 10.8451 14.2298C11.939 14.4693 12.101 15.3342 12.101 15.8304C12.101 17.1246 10.8991 17.9874 9.73703 18.8222C8.66871 19.5901 7.65722 20.3149 7.66859 21.3114C7.67427 21.7666 7.96124 22.0535 8.52097 22.1656C8.85055 21.5056 9.65747 21.1065 10.6377 20.6255C10.8707 20.5112 11.1094 20.3925 11.3594 20.2653C12.4959 19.6785 13.0613 18.861 13.2659 18.5073C12.9363 17.4007 13.0727 16.3977 13.6154 15.5909C14.1126 14.8511 13.6523 13.8653 14.0813 13.0952C13.8626 13.1125 13.4079 13.0823 13.3426 12.5538C13.2602 11.8592 14.2689 11.7924 14.6411 11.7169C14.749 11.6263 14.9706 11.4839 15.2718 11.3243L14.9394 10.8497C14.6126 10.5154 14.1353 10.6772 13.7972 10.2285C13.3142 9.58571 14.2887 9.25136 14.6979 9.14135C14.9508 8.95153 15.3343 8.81133 15.573 8.73583C15.4395 8.68837 15.3343 8.59346 15.3116 8.46835C15.2832 8.3303 15.3713 8.18794 15.5304 8.11675C15.7889 8.00243 16.1072 8.09734 16.2009 8.3001C16.2435 8.39286 16.2322 8.48992 16.1782 8.57189C16.4282 8.51581 16.8402 8.44247 17.1954 8.46835C17.6045 8.35619 18.6387 8.15342 18.7922 8.88251C18.9001 9.39157 18.3944 9.49511 18.4171 9.90926L18.5052 10.2673C18.7069 10.2501 18.9058 10.2458 19.0962 10.2565C19.2496 10.2652 19.3746 10.2867 19.6104 10.3515C19.8377 10.414 20.1474 10.2415 20.4259 10.153C20.7043 10.0667 20.872 10.0559 21.0027 10.5348C21.1362 11.0158 20.6844 11.3523 20.6844 11.3523L21.0993 11.7643C21.5169 12.1785 22.3068 12.5128 22.5881 13.1901C22.7699 13.628 22.9575 14.1802 22.9773 14.6526H23.4348C23.3524 14.5836 23.3069 14.5038 23.3069 14.4175V14.2773V13.9926C23.3069 13.5159 23.8155 13.1276 24.4406 13.1276H25.1538C25.7788 13.1276 26.2874 13.5159 26.2874 13.9926V14.2751V14.4175C26.2874 14.5038 26.242 14.5836 26.1596 14.6526H36.2574C36.175 14.5836 36.1296 14.5038 36.1296 14.4175V14.2773V13.9926C36.1296 13.5159 36.6382 13.1276 37.2632 13.1276H37.9764C38.6015 13.1276 39.1101 13.5159 39.1101 13.9926V14.2751V14.4175C39.1101 14.5038 39.0646 14.5836 38.9822 14.6526H39.9795V16.4343C40.3403 16.5077 41.3689 16.5724 41.9883 16.4796C42.3207 15.9361 42.656 15.5198 42.656 15.5198C42.656 15.5198 41.5109 15.427 41.6814 14.3981C41.5166 14.26 41.5422 13.9645 41.5791 13.6366C41.6445 13.0952 41.4626 12.9895 41.4655 12.7005C41.474 12.4416 41.5365 12.2626 41.8235 12.0124C41.8718 11.8916 41.9627 11.6802 42.0991 11.4818C42.2042 11.3243 42.4088 11.1582 42.5821 11.0331V11.0309C42.5821 11.0309 42.3434 10.6405 42.656 10.2673C42.9657 9.89632 43.1021 9.94809 43.3009 10.0861C43.4544 10.194 43.693 10.3515 43.8749 10.4183L44.0027 9.90279C44.0255 9.48648 43.5197 9.38294 43.6277 8.87604C43.784 8.14695 44.8153 8.34972 45.2245 8.46188C45.5796 8.436 45.9916 8.50934 46.2417 8.56542C46.1877 8.48345 46.1763 8.38639 46.2189 8.29363C46.3127 8.08871 46.6309 7.9938 46.8895 8.11028C47.0486 8.18147 47.1367 8.32167 47.1082 8.46188C47.0827 8.58699 46.9775 8.6819 46.8468 8.72936C47.0855 8.80485 47.4691 8.94506 47.722 9.13488C48.1339 9.24273 49.1057 9.57924 48.6226 10.222C48.2874 10.6685 47.8072 10.5089 47.4804 10.8433L47.327 11.0633C47.7362 11.1151 48.7761 11.2855 48.6653 11.8743C48.5857 12.3036 48.0004 12.2346 47.7106 12.3856C47.6623 13.078 47.5174 13.3023 47.3526 13.6453C47.1793 14.0055 46.7161 14.3075 46.4519 14.5534C46.1962 14.7928 46.1365 15.0215 46.0911 15.248C45.9973 15.8066 46.7815 16.2898 47.2929 16.6328C48.3271 17.3274 48.7874 18.3304 49.2619 18.9797C49.6455 19.3787 50.2166 19.8619 51.0576 20.2588C51.1911 20.3214 51.3218 20.3817 51.4497 20.4421C52.6459 20.9987 53.5579 21.4258 53.9074 22.1613C54.4671 22.0491 54.7513 21.7644 54.7569 21.3093C54.7683 20.3127 53.7597 19.588 52.6885 18.82C51.5264 17.9853 50.3246 17.1224 50.3246 15.8282C50.3246 15.3342 50.4865 14.4671 51.5804 14.2277C52.3902 14.0508 53.3732 14.3032 53.9046 14.6742C53.9159 14.6807 53.9244 14.6871 53.9358 14.6958C53.9529 14.7087 53.9699 14.7195 53.9841 14.7324C55.3394 15.7441 54.6206 16.0784 55.7343 16.5681C54.5808 16.7708 54.4614 15.6147 53.9074 15.0193C53.8875 14.9977 53.8648 14.9762 53.842 14.9524C53.8335 14.946 53.8278 14.9395 53.8193 14.933C53.7994 14.9158 53.7795 14.8985 53.7597 14.8834C53.754 14.8791 53.7454 14.8726 53.7398 14.8683C53.2908 14.5361 52.3674 14.2945 51.6656 14.4499C50.9837 14.5987 50.6257 15.0776 50.6257 15.8304C50.6257 17.0275 51.7793 17.8558 52.8959 18.6561C53.9642 19.424 55.0695 20.2178 55.0581 21.3136C55.0524 21.868 54.6745 22.2411 53.9955 22.3813C54.0182 22.4525 54.0353 22.5237 54.0466 22.6014C54.0608 22.6898 54.0694 22.7761 54.075 22.8624C54.2455 22.8106 54.5268 22.7092 54.8024 22.5496C55.3792 22.2152 55.6718 21.7881 55.6718 21.2791C55.6718 20.1423 54.3876 19.2277 53.1459 18.3412C51.9782 17.5086 50.8758 16.7234 50.8758 15.7915C50.8758 15.0862 51.2508 14.8101 51.5662 14.7022C51.7509 14.6375 51.9668 14.6203 52.1884 14.6418C54.7768 14.7065 53.6204 17.1203 56.0611 16.8938C53.7454 17.7307 53.1886 16.5832 53.0777 16.1971C52.9556 15.7678 52.7112 15.2091 52.4811 15.0409C52.3106 14.9158 52.1344 14.8726 52.0037 14.8597C51.8929 14.8597 51.785 14.877 51.6912 14.9093C51.3559 15.0258 51.1769 15.3299 51.1769 15.7915L51.1656 15.7851ZM46.9236 10.4011C46.952 10.414 46.9804 10.4291 47.006 10.4421C47.094 10.4874 47.1935 10.5391 47.2503 10.5801C47.3838 10.5823 47.5486 10.5132 47.722 10.4572C47.9521 10.3558 48.1709 10.2867 48.2732 10.0495C48.4039 9.74317 48.1481 9.52531 47.9493 9.40883C47.9663 9.45413 47.9748 9.49942 47.972 9.54688C47.9351 10.0689 47.2503 10.0883 46.9236 10.4011ZM46.074 10.084C46.3042 10.1509 46.5173 10.2263 46.7076 10.304C46.7701 10.2156 46.9548 9.97182 47.1622 9.81651C47.452 9.60296 47.6254 9.44118 47.1707 9.15645C46.9548 9.02056 46.8241 8.93859 46.6394 8.85015C46.6451 9.00546 46.6394 9.22979 46.5741 9.40667C46.5031 9.59649 46.2502 9.89201 46.074 10.0818V10.084ZM45.0796 9.25783C45.1108 9.45413 45.0853 9.72376 45.0682 9.85965C45.2671 9.88769 45.4802 9.93083 45.699 9.9826C45.7132 9.782 45.7558 9.48432 45.878 9.21901C45.9575 9.04644 46.1422 8.86957 46.2786 8.75308C46.0655 8.73367 45.895 8.73583 45.6194 8.73799C45.0284 8.74446 45.0341 8.95153 45.0796 9.25568V9.25783ZM44.1164 9.48864C44.2045 9.6159 44.2755 9.74749 44.3835 9.81004C44.463 9.80573 44.5824 9.81435 44.6875 9.82082C44.7301 9.82298 44.7727 9.8273 44.8182 9.83161C44.7784 9.44981 44.2925 9.07017 44.6761 8.66465C44.7131 8.62582 44.7557 8.59346 44.8068 8.56758C44.5539 8.56326 44.1761 8.61072 44.0255 8.91055C43.909 9.14135 44.0255 9.30098 44.1192 9.4908L44.1164 9.48864ZM43.2157 10.6772C43.2668 10.6664 43.4828 10.5305 43.7271 10.5025C43.4771 10.3968 43.2583 10.2652 43.1447 10.1034C43.085 10.332 42.8094 10.5931 43.2129 10.6772H43.2157ZM42.7611 14.4908C42.7611 14.4908 42.9316 14.3053 42.8208 14.0745C42.7071 13.8502 42.5196 13.7445 42.5281 13.6151C42.5395 13.4878 42.7327 13.4037 42.9316 13.2484C43.1333 13.0952 43.318 12.7738 43.2185 12.6228C43.1248 12.4675 42.9856 12.3489 42.7469 12.2885C42.5111 12.2281 42.4457 12.1353 42.5508 12.0038C42.6531 11.8679 42.9259 11.883 43.1106 12.0145C43.2896 12.1483 43.5737 12.4438 43.4771 12.7954C43.3777 13.1492 43.0878 13.4015 42.9231 13.5547C42.7526 13.7057 42.9742 13.9084 43.3521 13.9731C43.73 14.0422 43.9658 14.0184 44.0084 13.9796C44.051 13.9408 44.0454 13.6949 44.105 13.4145C44.1675 13.1362 44.7301 12.8472 45.1847 12.8558C45.6421 12.8601 45.9177 12.9399 45.8183 13.188C45.5597 13.5072 45.0398 13.1297 45.0398 13.1297C45.0398 13.1297 44.5966 13.3023 44.4403 13.5741C44.2897 13.8502 44.3408 14.1285 44.1192 14.1759C43.9033 14.2212 43.4004 14.0983 43.2697 14.2277C43.1305 14.3571 43.0878 14.5491 43.0878 14.5491C43.0878 14.5491 43.7925 15.3407 44.5056 15.0344C44.7983 14.9093 45.1989 14.4175 45.6734 14.2428C46.1962 14.0508 46.8042 13.792 46.8042 13.2203C46.8042 13.1945 46.7929 12.9874 46.7929 12.914C46.7588 12.4977 46.915 12.4071 46.9832 12.3381C47.1878 12.1332 47.2844 12.0836 47.2759 11.7449C47.6538 11.6155 48.2163 11.4753 48.526 11.8657C48.7334 11.2531 47.364 11.1711 47.094 11.1906C46.9463 11.2078 47.023 11.3394 46.9577 11.3372C46.8951 11.3351 46.79 11.2531 46.6678 11.1733C46.6053 11.1323 46.0058 10.8476 45.52 10.7462C44.8494 10.6081 44.0738 10.5974 43.8891 10.6103C43.7044 10.6232 43.4231 10.6815 43.2526 10.7958C43.1077 10.8929 42.9458 10.9964 42.7725 11.1C42.5991 11.2035 42.3946 11.3653 42.2667 11.5551C42.2184 11.6241 42.1758 11.6975 42.1417 11.7665C42.4457 11.5616 42.6702 11.4882 42.8122 11.4796C42.8605 11.4796 42.9543 11.5227 42.9543 11.5227C42.9543 11.5227 42.2781 11.7686 42.0621 12.0836C41.8405 12.3963 41.9627 12.845 42.0337 13.1211C42.1076 13.3994 42.0167 13.6366 41.903 13.8157C41.7865 13.9947 41.6672 14.2169 41.9116 14.4153C42.1531 14.6138 42.7639 14.4908 42.7639 14.4908H42.7611ZM39.9681 18.7489L41.2211 19.0659C41.2211 19.0659 41.2382 17.8386 41.7951 16.8226C40.9285 16.8981 39.971 16.7708 39.971 16.7708V18.7467L39.9681 18.7489ZM41.2098 19.383C40.8773 19.2989 39.9852 19.0832 39.9653 19.0767V21.0828C40.2125 20.8736 40.8546 20.3731 41.3234 19.9633C41.2325 19.6354 41.2069 19.383 41.2069 19.383H41.2098ZM36.4165 13.999C36.4165 14.3571 36.6154 14.411 36.6325 14.3549C36.6808 14.2126 36.7717 14.1026 36.8825 14.0616C36.8825 14.0616 36.8513 14.2579 36.9052 14.3765C36.945 14.465 36.9848 14.5275 37.2547 14.5275C37.4621 14.5275 37.5303 14.2622 37.5786 14.081C37.5843 14.0551 37.607 14.0573 37.6127 14.0832C37.661 14.2622 37.7661 14.5146 37.965 14.5275C38.1639 14.5405 38.2435 14.4671 38.2833 14.3765C38.3372 14.2579 38.306 14.0616 38.306 14.0616C38.4083 14.1004 38.4935 14.1975 38.5447 14.3247C38.5901 14.4348 38.8032 14.3571 38.8032 14.0012C38.8032 13.6453 38.4282 13.3627 37.965 13.3627H37.2519C36.7916 13.3627 36.4137 13.6453 36.4137 14.0012L36.4165 13.999ZM23.5967 13.999C23.5967 14.3571 23.7956 14.411 23.8127 14.3549C23.861 14.2126 23.9519 14.1026 24.0627 14.0616C24.0627 14.0616 24.0315 14.2579 24.0854 14.3765C24.1252 14.465 24.165 14.5275 24.4349 14.5275C24.6423 14.5275 24.7105 14.2622 24.7588 14.081C24.7645 14.0551 24.7872 14.0573 24.7929 14.0832C24.8412 14.2622 24.9463 14.5146 25.1452 14.5275C25.3441 14.5405 25.4237 14.4671 25.4635 14.3765C25.5174 14.2579 25.4862 14.0616 25.4862 14.0616C25.5885 14.1004 25.6737 14.1975 25.7248 14.3247C25.7703 14.4348 25.9834 14.3571 25.9834 14.0012C25.9834 13.6453 25.6084 13.3627 25.1452 13.3627H24.4321C23.9718 13.3627 23.5939 13.6453 23.5939 14.0012L23.5967 13.999ZM19.7525 10.4593C19.9912 10.5628 20.1474 10.7678 20.1957 10.7937C20.6589 10.826 20.5083 10.4744 20.5623 10.2177C20.3634 10.3515 20.065 10.4226 19.7525 10.4593ZM17.5846 9.84239C17.6301 9.83808 17.6727 9.83592 17.7153 9.83161C17.8204 9.82514 17.9398 9.81651 18.0193 9.82082C18.1273 9.75827 18.1983 9.62669 18.2864 9.49942C18.383 9.31176 18.4938 9.15214 18.3802 8.91918C18.2296 8.61719 17.8517 8.56974 17.5988 8.57621C17.65 8.60209 17.6926 8.63445 17.7295 8.67327C18.1131 9.0788 17.6272 9.45844 17.5875 9.84024L17.5846 9.84239ZM16.1242 8.76818C16.2606 8.88466 16.4453 9.06154 16.5248 9.23411C16.647 9.49727 16.6896 9.7971 16.7038 9.9977C16.9226 9.94593 17.1357 9.90279 17.3346 9.87475C17.3175 9.73886 17.292 9.46923 17.3232 9.27293C17.3715 8.96879 17.3744 8.76171 16.7834 8.75524C16.5078 8.75309 16.3401 8.75093 16.1242 8.77034V8.76818ZM15.2377 9.83161C15.4451 9.98692 15.6298 10.2307 15.6923 10.3191C15.8799 10.2415 16.0958 10.166 16.3259 10.0991C16.1498 9.90711 15.8969 9.61375 15.8259 9.42393C15.7605 9.24705 15.7548 9.02272 15.7605 8.86741C15.5758 8.95585 15.4451 9.03782 15.2292 9.17371C14.7746 9.4606 14.9479 9.62022 15.2377 9.83377V9.83161ZM15.394 10.4572C15.4196 10.4442 15.448 10.4291 15.4764 10.4162C15.1525 10.1056 14.4649 10.084 14.428 9.56198C14.4251 9.51452 14.4336 9.46923 14.4507 9.42393C14.249 9.54041 13.9933 9.75827 14.1268 10.0646C14.2291 10.2997 14.4479 10.3709 14.678 10.4723C14.8513 10.5283 15.0161 10.5974 15.1496 10.5952C15.2065 10.5542 15.3059 10.5046 15.394 10.4572ZM15.0246 11.6867C15.2349 11.6608 15.6042 11.7492 15.0815 12.2691C14.6098 12.7372 14.2177 13.2462 14.3172 14.0163C14.4138 14.7885 14.8087 15.1638 14.4507 15.9167C14.0927 16.6695 14.6354 17.5884 14.6354 17.5884C14.6354 17.5884 14.874 17.1397 15.0388 16.704C15.4253 17.8839 16.2663 18.4771 16.2663 18.4771C16.2663 18.4771 16.0503 17.9162 16.4708 16.7622C16.7635 18.49 19.3149 18.339 20.7839 19.2536C21.4374 19.6591 22.0284 20.22 22.4176 20.6233V14.6634H22.6534C22.6165 14.452 22.5398 14.0745 22.392 13.6755C22.1733 13.0866 21.8238 12.4913 21.0907 11.9153C20.3605 11.3351 20.3208 11.2359 20.0935 10.9123C19.8662 10.5866 19.4797 10.427 18.9825 10.4011C18.4853 10.3752 16.8715 10.5607 15.0218 11.6888L15.0246 11.6867ZM14.7064 12.4179C14.8002 12.3295 15.1496 12.0232 15.1269 11.8592C14.965 11.8204 13.2716 11.8463 13.4761 12.5603C13.8739 12.0987 14.5814 12.4114 14.7064 12.4179ZM13.7432 24.5103C16.1185 25.2524 15.5929 27.2929 15.5702 27.582C15.5219 28.2356 16.2805 28.324 16.9141 28.8158C17.7579 29.4737 18.5336 30.1553 18.6245 30.1791C18.8746 30.2114 20.8464 30.3861 20.9686 30.3236C20.4032 29.4025 17.7409 28.6454 17.1783 27.8063C16.7749 27.2067 16.7663 26.5984 16.8573 26.1324C16.9539 25.6687 17.559 23.1277 13.7404 24.5103H13.7432ZM19.6389 22.4051C19.3746 22.3037 19.1786 22.2605 19.1786 22.2605C16.0162 23.4555 14.6723 22.7135 13.2034 24.3895C13.2517 24.396 13.3085 24.4046 13.3682 24.4154C13.533 24.2925 13.8796 24.0725 14.4507 23.8654C15.3059 23.5526 16.1583 23.4448 17.2493 23.201C18.2608 22.9788 19.1928 22.6272 19.636 22.4051H19.6389ZM39.505 25.8607C39.4254 25.8693 39.3431 25.8758 39.2635 25.8779V28.145H36.4791L36.4677 28.1169L36.4506 28.0695L36.4308 28.0134L36.4137 27.9638L36.3938 27.912L36.3739 27.8581L36.354 27.8085L36.3341 27.7567L36.3143 27.7049L36.2944 27.6532L36.2745 27.5992L36.2546 27.5475L36.2489 27.5302H33.3167L33.3082 27.5475L33.2883 27.5992L33.2656 27.6532L33.2428 27.7049L33.223 27.7567L33.2002 27.8085L33.1803 27.8602L33.1576 27.9142L33.1349 27.9659L33.115 28.0156L33.0923 28.0716L33.0724 28.1191L33.061 28.1471H29.5776V28.1191L29.5662 28.0716L29.5577 28.0156L29.5492 27.9659L29.5407 27.9142L29.5322 27.8602L29.5236 27.8106L29.5151 27.7589L29.5066 27.7071L29.4981 27.6553L29.4895 27.6014L29.481 27.5496L29.4725 27.4957L29.464 27.4439L29.4554 27.3922L29.4469 27.3404L29.4384 27.2865L29.4299 27.2369L29.427 27.211H26.5034V27.2369H26.5005L26.492 27.2865L26.4835 27.3404L26.4749 27.3922L26.4664 27.4439L26.4579 27.4957L26.4494 27.5496L26.4408 27.6014L26.4323 27.6553L26.4238 27.7071L26.4153 27.7589L26.4068 27.8106L26.3982 27.8624L26.3897 27.9163L26.3812 27.9681L26.3727 28.0177L26.3641 28.0738L26.3556 28.1212C26.3442 28.104 26.3329 28.0889 26.3187 28.0738C26.3045 28.0544 26.2874 28.035 26.2704 28.0177C26.2533 28.0005 26.2391 27.9832 26.2221 27.9681C26.2022 27.9487 26.1766 27.9314 26.1539 27.9163C26.1283 27.8969 26.0971 27.8797 26.0686 27.8624C26.0345 27.843 26.0005 27.8279 25.9635 27.8128C25.9124 27.7912 25.8584 27.774 25.8044 27.761C25.7248 27.7416 25.6368 27.733 25.5487 27.733C25.4606 27.733 25.3754 27.7438 25.293 27.761C25.2362 27.774 25.1822 27.7912 25.1282 27.8128C25.0912 27.8279 25.0572 27.8451 25.0231 27.8624C24.9918 27.8797 24.9634 27.8969 24.9378 27.9163C24.9151 27.9336 24.8924 27.9508 24.8725 27.9681C24.8554 27.9832 24.8384 28.0005 24.8242 28.0177C24.8071 28.035 24.7901 28.0544 24.7759 28.0738C24.7645 28.0889 24.7531 28.1061 24.7446 28.1212C24.7389 28.1299 24.7304 28.1407 24.7247 28.1493H23.1166V27.9681V27.8106V27.7071V27.239V27.0815V27.0319V26.7731V26.7213V26.6696V26.1001V26.0483V25.9966V25.8973C23.0342 25.8952 22.9546 25.8887 22.8751 25.8801V27.5604V29.6053C22.8751 30.576 23.6791 31.0505 24.8441 31.0505H37.5218C38.6867 31.0505 39.4908 30.576 39.4908 29.6053V27.0794V25.8693L39.505 25.8607ZM27.2137 25.9879L27.2108 26.0397L27.208 26.0915L27.2052 26.1432V26.195L27.1995 26.2468V26.2985L27.1909 26.3525V26.4042L27.1853 26.4538L28.7877 26.456L28.7849 26.4042V26.3525L28.7792 26.2985V26.2468L28.7735 26.195V26.1432L28.7678 26.0915L28.765 26.0397L28.7622 25.9879L28.7593 25.934V25.8822L28.7536 25.8326V25.7787L28.748 25.7291V25.6773L28.7423 25.6234L28.7394 25.5716V25.522L28.7338 25.4681V25.4163L28.7281 25.3624V25.3128L28.7224 25.261V25.2092L28.7167 25.1596L28.7139 25.1078V25.0539H28.711V25.0043L28.7053 24.9525V24.9008H28.7025L27.3018 24.8986V24.9029V24.9547L27.2932 25.0065V25.0561H27.2904V25.11H27.2875V25.1618H27.2847V25.2114L27.279 25.2632V25.3149L27.2733 25.3645V25.4185L27.2648 25.4702V25.5242L27.2591 25.5738V25.6255H27.2563V25.6795L27.2478 25.7312V25.7808L27.2392 25.8348V25.8844L27.2336 25.9362V25.9901L27.2137 25.9879ZM28.7394 24.808V24.7929V24.4823V24.4176H27.2137V24.4823V24.7929V24.808H28.7394ZM26.9921 26.5876L26.9864 26.6135L26.9778 26.6631L26.9665 26.7148L26.9551 26.7666L26.9466 26.8184L26.9352 26.8702L26.9239 26.9219L26.9125 26.9759L26.904 27.0276L26.8955 27.0772L26.8898 27.1074H29.0605V27.0772H29.0548L29.0463 27.0276L29.0378 26.9759L29.0292 26.9219L29.0207 26.8702L29.0122 26.8184L29.0037 26.7688L28.9952 26.717L28.9866 26.6652L28.9809 26.6156V26.5897H26.9807L26.9921 26.5876ZM33.2144 27.1786V27.2325V27.4267H36.3796V27.2325V27.1765H33.2144V27.1786ZM36.1551 27.0643V27.0276V26.7688V26.717V26.6652V26.5897H33.4616V26.6652V26.717V26.7688V27.0298V27.0664H36.1551V27.0643ZM48.6511 24.4974C44.8324 23.1147 45.4376 25.6579 45.5342 26.1195C45.6251 26.5854 45.6166 27.1937 45.2131 27.7934C44.6505 28.6303 41.9854 29.3896 41.4229 30.3107C41.5479 30.3732 43.5169 30.1985 43.7669 30.1661C43.8578 30.1424 44.6363 29.4608 45.4774 28.8029C46.1081 28.3111 46.8696 28.2226 46.8213 27.569C46.7985 27.28 46.2729 25.2394 48.6482 24.4974H48.6511ZM49.1909 24.3788C47.6026 22.9292 46.6593 22.9594 43.5396 21.4754C43.5396 21.4754 43.3237 21.5638 42.9998 21.7299C43.7726 22.2692 46.9832 22.8667 49.0261 24.4046C49.0886 24.3939 49.1426 24.3852 49.1909 24.3788ZM53.6687 25.0669C53.5522 24.7627 53.6091 24.4154 53.6744 24.0121C53.7398 23.6065 53.8136 23.1471 53.7312 22.6229C53.5892 21.7083 52.6175 21.2575 51.2764 20.6341C51.1485 20.5737 51.0178 20.5133 50.8843 20.4508C50.3331 20.1919 49.2676 19.4283 49.1483 19.342C48.4465 18.8287 48.2163 17.817 47.3554 17.157C47.0202 16.9003 46.7957 16.7234 46.4661 16.4041C45.4944 15.5737 45.7814 14.9158 46.0428 14.6116C46.2019 14.4283 46.5286 14.1932 46.4888 14.163C46.469 14.1479 46.2928 14.2773 46.1195 14.3549C45.9348 14.4369 45.7899 14.4822 45.52 14.6763C45.412 14.7562 45.3012 14.8338 45.1904 14.9115C44.7642 15.2091 43.9033 15.8325 42.8378 14.7216C42.8378 14.7216 42.4287 14.823 42.0451 14.6936C42.1531 15.399 42.852 15.3235 43.6192 15.3752C43.4345 15.4292 43.2697 15.4917 43.0083 15.5176C42.8151 16.0202 41.3405 17.2087 41.653 19.657L41.94 19.3636C41.9087 17.6811 42.5679 16.7816 43.2924 15.9943C43.3095 15.9749 43.3492 15.9943 43.3379 16.0159C42.6759 17.0707 42.3775 17.7911 42.5452 18.682C43.2811 17.638 43.6305 17.4287 44.088 17.3252C42.8236 18.1514 43.2867 18.751 41.4001 20.4378C41.2268 20.5931 40.454 21.2812 40.1784 21.5271C40.1045 21.5919 40.0335 21.6566 39.9624 21.717C39.7749 21.8787 39.6073 22.0211 39.4993 22.1052V22.047V21.4624V14.9913H22.8836V20.8175V20.9512V21.4236C22.8836 21.4236 22.8807 21.4236 22.8779 21.4236V22.3662C22.8779 22.3662 22.7046 22.1268 22.4148 21.7795C22.3182 21.663 22.2102 21.5358 22.088 21.3999C21.3976 20.619 20.3577 19.5901 19.3746 19.2105C18.5847 18.9063 17.6699 18.8761 16.6214 18.0111C16.5333 18.3843 16.7834 19.0228 16.7834 19.0228C16.7834 19.0228 15.5247 18.8028 15.0076 17.6035C14.8769 17.9702 14.7774 18.4188 13.8313 18.8049C13.3454 19.3636 12.7545 19.7217 12.2885 19.9741C12.0612 20.1445 11.8026 20.3127 11.5043 20.4659C11.2514 20.5953 11.0099 20.7139 10.7769 20.8304C9.62054 21.3977 8.78236 21.8097 8.65166 22.6423C8.56927 23.1687 8.64314 23.6281 8.70849 24.0315C8.77384 24.4327 8.83066 24.7821 8.71417 25.0863C8.58347 25.4314 8.02659 25.8154 7.58051 26.126C7.35889 26.2791 7.15147 26.4236 7.06624 26.5164C6.94974 26.6415 6.98952 26.9802 7.05487 27.3275C7.18273 27.1376 7.40151 27.0125 7.58051 26.937C7.67711 26.896 7.78792 26.9737 7.74246 27.0513C7.58335 27.321 7.33047 27.8214 7.23955 28.3995C7.24524 28.5376 7.24524 28.6864 7.24524 28.8439C7.24524 29.2796 7.24524 29.7714 7.40151 30.0087C7.45265 30.0885 7.53789 30.1726 7.64017 30.261C7.68279 30.2956 7.73109 30.3279 7.78508 30.3581C7.94703 30.453 8.16865 30.5048 8.40163 30.5717C8.48687 30.5911 8.58347 30.6213 8.68576 30.6623C8.71133 30.6709 8.7369 30.6795 8.76247 30.6903C9.07217 30.8132 9.29663 30.9082 9.52677 30.947C9.69441 30.9686 9.85636 30.9621 10.0041 30.9211C10.0212 30.9168 10.0354 30.9125 10.0496 30.9082C10.2683 30.8154 10.3564 30.6407 10.5553 30.6407C10.5809 30.6385 10.6065 30.6385 10.6349 30.6407H10.6406C10.8707 30.6493 11.0667 30.6838 11.1662 30.5889C11.2003 30.5566 11.2259 30.522 11.2429 30.4854C11.2429 30.4767 11.2486 30.4638 11.2514 30.4552C11.2855 30.1877 11.0639 30.1597 10.453 30.0044C9.84216 29.8512 8.65735 29.7779 8.52381 28.9905C8.39595 28.2011 8.24536 27.4655 9.23128 26.7774C10.2144 26.0871 11.7117 26.2015 12.3453 24.3421C12.9931 22.1548 14.4365 21.8162 14.4365 21.8162C14.4365 21.8162 13.55 22.5151 13.3369 23.682C14.7121 22.6057 16.4737 22.7933 18.1671 21.924C16.3345 21.0267 17.7352 19.1803 17.7352 19.1803C17.7352 19.1803 18.1841 20.5759 19.4229 21.1259C20.065 21.4107 20.6617 21.8011 21.1049 22.2951C21.3521 22.569 21.551 22.8731 21.6846 23.2096C21.9516 23.8891 21.9801 24.7153 22.4062 25.1359C22.5256 25.2545 22.679 25.3386 22.8751 25.3818C22.9489 25.3969 23.0285 25.4077 23.1166 25.4098C23.1222 25.4098 23.1251 25.4098 23.1279 25.4098C23.1791 25.4098 23.2331 25.4098 23.287 25.4098C23.4859 25.4055 23.7985 25.3947 23.9036 25.2351C23.9718 25.1294 23.9121 25.0043 23.8667 24.9008C23.8127 24.7778 23.7644 24.6527 23.7104 24.5298C23.557 24.1803 23.3922 23.4253 23.3808 23.4124H23.4604H23.5058H23.8269H26.4636H27.8615V23.4167V23.4512V23.6907L27.8217 23.7101L27.7137 23.7618L27.6086 23.8115L27.4978 23.8654L27.3898 23.9172L27.2819 23.9689L27.2052 24.0056H27.4467V24.3141H28.5093V24.0056H28.7309L28.657 23.9689L28.5519 23.9172L28.4468 23.8654L28.3388 23.8115L28.2365 23.7618L28.1314 23.7101L28.0831 23.6863V23.4102H31.933H38.664H38.7492H38.9623C38.9453 23.4448 38.6924 24.4284 38.6612 24.5168C38.6157 24.6419 38.5589 24.7649 38.5049 24.8878C38.4594 24.9914 38.3969 25.1165 38.4679 25.2222C38.5731 25.3818 38.8856 25.3926 39.0845 25.3969C39.1385 25.3969 39.1896 25.3969 39.2436 25.3969C39.2464 25.3969 39.2493 25.3969 39.255 25.3969C39.3431 25.3947 39.4226 25.3839 39.4965 25.3689C39.6925 25.3279 39.8431 25.2437 39.9624 25.1294C40.3943 24.7109 40.4199 23.8805 40.6898 23.1989C40.8347 22.8278 41.062 22.4957 41.3433 22.2023C41.778 21.7472 42.3434 21.3848 42.9486 21.1151C44.1874 20.5651 46.2985 19.9482 46.6593 18.0845C46.8383 19.355 45.9263 20.3602 44.3181 21.1906C45.5285 22.0448 47.4009 22.3209 49.0744 23.8287C48.884 22.6014 47.9351 21.8054 47.9351 21.8054C47.9351 21.8054 49.3813 22.1441 50.0262 24.3313C50.6598 26.1885 52.1572 26.0764 53.1403 26.7666C54.1262 27.4569 53.9756 28.1903 53.8477 28.9798C53.7142 29.7671 52.5294 29.8404 51.9185 29.9936C51.3076 30.1489 51.086 30.1769 51.1201 30.4444C51.1201 30.453 51.1258 30.466 51.1286 30.4746C51.1457 30.5113 51.1713 30.5458 51.2054 30.5781C51.3048 30.673 51.5008 30.6385 51.731 30.6299H51.7367C51.7651 30.6256 51.7907 30.6256 51.8134 30.6299C52.0151 30.6299 52.1003 30.8046 52.322 30.8974C52.3362 30.9017 52.3504 30.906 52.3674 30.9103C52.5152 30.9535 52.6771 30.9599 52.8448 30.9362C53.0749 30.8995 53.2994 30.8046 53.6091 30.6795C53.6346 30.6687 53.6602 30.6601 53.6858 30.6515C53.7881 30.6105 53.8847 30.5824 53.9699 30.5609C54.2029 30.494 54.4245 30.4422 54.5865 30.3473C54.6404 30.3171 54.6887 30.2848 54.7314 30.2503C54.8365 30.1618 54.9189 30.0755 54.9729 29.9979C55.1291 29.7606 55.1291 29.2688 55.1291 28.8331C55.1291 28.6756 55.1291 28.5268 55.1377 28.3887C55.0496 27.8106 54.7939 27.308 54.6348 27.0406C54.5893 26.9629 54.7001 26.8853 54.7967 26.9262C54.9786 27.0017 55.1945 27.1268 55.3224 27.3167C55.3877 26.9715 55.4275 26.6307 55.311 26.5056C55.2257 26.4129 55.0155 26.2683 54.7967 26.1152C54.3506 25.8046 53.7937 25.4206 53.663 25.0755L53.6687 25.0669Z" fill="white"/>
</svg>
