<svg width="17" height="16" viewBox="0 0 17 16" fill="none" xmlns="http://www.w3.org/2000/svg">
<path d="M11.652 1.83333C11.652 3.27533 9.77202 5.06733 8.83535 5.81867C8.68878 5.93617 8.50654 6.00021 8.31869 6.00021C8.13083 6.00021 7.94859 5.93617 7.80202 5.81867C6.86535 5.06667 4.98535 3.27533 4.98535 1.83333C4.96433 1.36948 5.12787 0.91618 5.44022 0.572604C5.75256 0.229027 6.18827 0.0231456 6.65202 0C7.11577 0.0231456 7.55148 0.229027 7.86382 0.572604C8.17616 0.91618 8.33971 1.36948 8.31869 1.83333C8.29766 1.36948 8.46121 0.91618 8.77355 0.572604C9.08589 0.229027 9.5216 0.0231456 9.98535 0C10.4491 0.0231456 10.8848 0.229027 11.1972 0.572604C11.5095 0.91618 11.673 1.36948 11.652 1.83333ZM12.864 13.6073L16.3307 9.64533C16.7904 9.13523 17.0286 8.46341 16.993 7.77765C16.9574 7.09189 16.6508 6.44838 16.1407 5.98867C15.6306 5.52896 14.9588 5.29071 14.273 5.32635C13.5872 5.36198 12.9437 5.66857 12.484 6.17867L10.8587 7.96467C10.4117 7.55719 9.82822 7.33195 9.22335 7.33333H3.98535C3.18997 7.33422 2.42742 7.65057 1.86501 8.21299C1.30259 8.77541 0.986234 9.53796 0.985352 10.3333L0.985352 13C0.986234 13.7954 1.30259 14.5579 1.86501 15.1203C2.42742 15.6828 3.18997 15.9991 3.98535 16H7.59469C8.59281 15.9999 9.57937 15.7864 10.4882 15.3737C11.397 14.961 12.2071 14.3588 12.864 13.6073ZM9.22335 9.33333C9.33207 9.33256 9.437 9.37319 9.51685 9.44697C9.5967 9.52075 9.64548 9.62216 9.65328 9.73059C9.66109 9.83903 9.62734 9.94637 9.55888 10.0308C9.49042 10.1153 9.39239 10.1705 9.28469 10.1853L5.84402 10.6767C5.58145 10.7142 5.34453 10.8544 5.18538 11.0666C5.02622 11.2787 4.95787 11.5454 4.99535 11.808C5.03284 12.0706 5.17309 12.3075 5.38525 12.4666C5.59742 12.6258 5.86412 12.6942 6.12669 12.6567L9.56802 12.1653C10.0899 12.0881 10.5728 11.844 10.9445 11.4696C11.3162 11.0952 11.5567 10.6105 11.63 10.088L13.9634 7.526C14.0154 7.46875 14.0782 7.42232 14.1482 7.38936C14.2181 7.35639 14.2939 7.33755 14.3712 7.33389C14.4485 7.33024 14.5257 7.34185 14.5985 7.36807C14.6713 7.39428 14.7382 7.43458 14.7954 7.48667C14.9103 7.59285 14.9786 7.74013 14.9855 7.89645C14.9924 8.05278 14.9372 8.20549 14.832 8.32133L11.3614 12.2913C10.8916 12.8282 10.3125 13.2584 9.66285 13.5531C9.0132 13.8478 8.30805 14.0002 7.59469 14H3.98535C3.72014 14 3.46578 13.8946 3.27824 13.7071C3.09071 13.5196 2.98535 13.2652 2.98535 13V10.3333C2.98535 10.0681 3.09071 9.81376 3.27824 9.62623C3.46578 9.43869 3.72014 9.33333 3.98535 9.33333H9.22335Z" fill="#1D71B8"/>
</svg>
