<svg width="21" height="21" viewBox="0 0 21 21" fill="none" xmlns="http://www.w3.org/2000/svg">
<path d="M1.8042 10.8044C1.73128 10.608 1.73128 10.3919 1.8042 10.1954C2.51444 8.47332 3.72003 7.00086 5.26813 5.96474C6.81623 4.92861 8.63712 4.37549 10.5 4.37549C12.3628 4.37549 14.1837 4.92861 15.7318 5.96474C17.2799 7.00086 18.4855 8.47332 19.1957 10.1954C19.2686 10.3919 19.2686 10.608 19.1957 10.8044C18.4855 12.5266 17.2799 13.999 15.7318 15.0352C14.1837 16.0713 12.3628 16.6244 10.5 16.6244C8.63712 16.6244 6.81623 16.0713 5.26813 15.0352C3.72003 13.999 2.51444 12.5266 1.8042 10.8044Z" stroke="#009FE3" stroke-width="1.75" stroke-linecap="round" stroke-linejoin="round"/>
<path d="M10.5 13.125C11.9497 13.125 13.125 11.9497 13.125 10.5C13.125 9.05025 11.9497 7.875 10.5 7.875C9.05025 7.875 7.875 9.05025 7.875 10.5C7.875 11.9497 9.05025 13.125 10.5 13.125Z" stroke="#009FE3" stroke-width="1.75" stroke-linecap="round" stroke-linejoin="round"/>
</svg>
