<svg width="28" height="29" viewBox="0 0 28 29" fill="none" xmlns="http://www.w3.org/2000/svg">
<path d="M7.00016 10.9998H5.25016C4.47661 10.9998 3.73475 10.6925 3.18777 10.1456C2.64079 9.59858 2.3335 8.85672 2.3335 8.08317C2.3335 7.30962 2.64079 6.56776 3.18777 6.02078C3.73475 5.47379 4.47661 5.1665 5.25016 5.1665H7.00016" stroke="#F5B800" stroke-width="2.33333" stroke-linecap="round" stroke-linejoin="round"/>
<path d="M21 10.9998H22.75C23.5235 10.9998 24.2654 10.6925 24.8124 10.1456C25.3594 9.59858 25.6667 8.85672 25.6667 8.08317C25.6667 7.30962 25.3594 6.56776 24.8124 6.02078C24.2654 5.47379 23.5235 5.1665 22.75 5.1665H21" stroke="#F5B800" stroke-width="2.33333" stroke-linecap="round" stroke-linejoin="round"/>
<path d="M4.6665 26.1665H23.3332" stroke="#F5B800" stroke-width="2.33333" stroke-linecap="round" stroke-linejoin="round"/>
<path d="M11.6665 17.6035V20.3335C11.6665 20.9752 11.1182 21.4768 10.5348 21.7452C9.15817 22.3752 8.1665 24.1135 8.1665 26.1668" stroke="#F5B800" stroke-width="2.33333" stroke-linecap="round" stroke-linejoin="round"/>
<path d="M16.3335 17.6035V20.3335C16.3335 20.9752 16.8818 21.4768 17.4652 21.7452C18.8418 22.3752 19.8335 24.1135 19.8335 26.1668" stroke="#F5B800" stroke-width="2.33333" stroke-linecap="round" stroke-linejoin="round"/>
<path d="M21 2.8335H7V11.0002C7 12.8567 7.7375 14.6372 9.05025 15.9499C10.363 17.2627 12.1435 18.0002 14 18.0002C15.8565 18.0002 17.637 17.2627 18.9497 15.9499C20.2625 14.6372 21 12.8567 21 11.0002V2.8335Z" stroke="#F5B800" stroke-width="2.33333" stroke-linecap="round" stroke-linejoin="round"/>
</svg>
