<svg width="28" height="29" viewBox="0 0 28 29" fill="none" xmlns="http://www.w3.org/2000/svg">
<path d="M18.0567 15.5386L19.8242 25.4856C19.844 25.6027 19.8276 25.7231 19.7771 25.8306C19.7266 25.9382 19.6445 26.0277 19.5418 26.0873C19.439 26.147 19.3205 26.1738 19.2021 26.1642C19.0837 26.1547 18.9711 26.1092 18.8792 26.0339L14.7025 22.8991C14.5009 22.7484 14.256 22.667 14.0043 22.667C13.7526 22.667 13.5077 22.7484 13.306 22.8991L9.12236 26.0327C9.03057 26.1079 8.91804 26.1533 8.79978 26.1629C8.68151 26.1724 8.56315 26.1457 8.46047 26.0863C8.35779 26.0268 8.27569 25.9375 8.2251 25.8301C8.17452 25.7228 8.15787 25.6026 8.17736 25.4856L9.9437 15.5386" stroke="#757575" stroke-width="2.33333" stroke-linecap="round" stroke-linejoin="round"/>
<path d="M14 16.8335C17.866 16.8335 21 13.6995 21 9.8335C21 5.9675 17.866 2.8335 14 2.8335C10.134 2.8335 7 5.9675 7 9.8335C7 13.6995 10.134 16.8335 14 16.8335Z" stroke="#757575" stroke-width="2.33333" stroke-linecap="round" stroke-linejoin="round"/>
</svg>
