<svg width="13" height="13" viewBox="0 0 13 13" fill="none" xmlns="http://www.w3.org/2000/svg">
<path d="M9.83333 5.83333V1.83333C9.83333 1.1 9.23333 0.5 8.5 0.5H4.5C3.76667 0.5 3.16667 1.1 3.16667 1.83333V3.16667H1.83333C1.1 3.16667 0.5 3.76667 0.5 4.5V11.1667C0.5 11.9 1.1 12.5 1.83333 12.5H5.16667C5.53333 12.5 5.83333 12.2 5.83333 11.8333V9.83333H7.16667V11.8333C7.16667 12.2 7.46667 12.5 7.83333 12.5H11.1667C11.9 12.5 12.5 11.9 12.5 11.1667V7.16667C12.5 6.43333 11.9 5.83333 11.1667 5.83333H9.83333ZM3.16667 11.1667H1.83333V9.83333H3.16667V11.1667ZM3.16667 8.5H1.83333V7.16667H3.16667V8.5ZM3.16667 5.83333H1.83333V4.5H3.16667V5.83333ZM5.83333 8.5H4.5V7.16667H5.83333V8.5ZM5.83333 5.83333H4.5V4.5H5.83333V5.83333ZM5.83333 3.16667H4.5V1.83333H5.83333V3.16667ZM8.5 8.5H7.16667V7.16667H8.5V8.5ZM8.5 5.83333H7.16667V4.5H8.5V5.83333ZM8.5 3.16667H7.16667V1.83333H8.5V3.16667ZM11.1667 11.1667H9.83333V9.83333H11.1667V11.1667ZM11.1667 8.5H9.83333V7.16667H11.1667V8.5Z" fill="#0B236D"/>
</svg>
