<svg width="25" height="24" viewBox="0 0 25 24" fill="none" xmlns="http://www.w3.org/2000/svg">
<g clip-path="url(#clip0_4_8327)">
<path d="M3.22992 21.0001H21.7599C22.5299 21.0001 23.0099 20.1701 22.6299 19.5001L13.3599 3.50006C12.9699 2.83006 12.0099 2.83006 11.6299 3.50006L2.35992 19.5001C1.97992 20.1701 2.45992 21.0001 3.22992 21.0001ZM13.4999 18.0001H11.4999V16.0001H13.4999V18.0001ZM12.4999 14.0001C11.9499 14.0001 11.4999 13.5501 11.4999 13.0001V11.0001C11.4999 10.4501 11.9499 10.0001 12.4999 10.0001C13.0499 10.0001 13.4999 10.4501 13.4999 11.0001V13.0001C13.4999 13.5501 13.0499 14.0001 12.4999 14.0001Z" fill="#DB4437"/>
</g>
<defs>
<clipPath id="clip0_4_8327">
<rect width="24" height="24" fill="white" transform="translate(0.5)"/>
</clipPath>
</defs>
</svg>
