<svg width="166" height="65" viewBox="0 0 166 65" fill="none" xmlns="http://www.w3.org/2000/svg">
<g clip-path="url(#clip0_1_314)">
<path d="M22.6746 0C17.9915 0 14.1821 3.78897 14.1821 8.4469C14.1821 13.1048 17.9915 16.8938 22.6746 16.8938C27.3577 16.8938 31.1671 13.1048 31.1671 8.4469C31.1671 3.78897 27.3577 0 22.6746 0Z" fill="#009FE3"/>
<path d="M20.9509 30.8122C21.4241 30.3352 22.0494 30.0966 22.6768 30.0966C23.3042 30.0966 23.9273 30.3352 24.407 30.8122L31.1671 37.5425V24.3376L31.0386 24.2098C28.8052 21.9926 25.8331 20.7658 22.6768 20.7658C19.5205 20.7658 16.5483 21.9926 14.3149 24.2098L4.27851 34.1965C-0.336042 38.7863 -0.336042 46.2493 4.27851 50.8326L10.3427 56.8643L14.3128 60.813C16.5462 63.0344 19.5183 64.257 22.6746 64.257C22.8374 64.257 22.9958 64.257 23.1543 64.2506C26.1307 64.1334 28.9144 62.9237 31.0386 60.813L31.1671 60.6852V47.4931L24.407 54.2169C24.2849 54.3341 24.1564 54.4384 24.0151 54.53C23.968 54.5641 23.9166 54.5875 23.8695 54.611C23.8459 54.6344 23.8117 54.645 23.7881 54.6578C23.741 54.6876 23.7003 54.7047 23.6532 54.7217C23.6125 54.7388 23.5761 54.7558 23.5354 54.7686C23.5183 54.7792 23.5012 54.7792 23.4883 54.792C23.4883 54.792 23.4712 54.792 23.4476 54.8026C23.4369 54.8026 23.4241 54.809 23.4134 54.809C23.3727 54.8261 23.332 54.8389 23.2956 54.8431C23.2785 54.8495 23.2613 54.8538 23.2421 54.8538C23.2185 54.8602 23.1843 54.8644 23.1543 54.8708C23.09 54.8942 23.0194 54.9006 22.9551 54.9049C22.9145 54.9113 22.878 54.9113 22.8374 54.9155C22.7838 54.9219 22.7324 54.9219 22.6746 54.9219H22.6682C22.3406 54.9219 22.013 54.858 21.7089 54.7238C21.4284 54.6067 21.1714 54.4321 20.9487 54.2127L15.3406 48.6411L10.908 44.2323C9.95516 43.2781 9.95516 41.7425 10.908 40.7948L20.9487 30.808L20.9509 30.8122Z" fill="#009FE3"/>
<path d="M55.6532 21.7626C55.7153 22.1375 55.559 22.327 55.1842 22.327H50.6532C50.3405 22.327 50.1521 22.1694 50.09 21.8584C49.6532 19.5625 48.9701 17.9438 48.0429 17.0046C47.1157 16.0653 45.8095 15.5946 44.1221 15.5946H42.9037V21.8265C42.9037 22.1609 42.726 22.327 42.3727 22.327H38.3406C38.0065 22.327 37.8416 22.1609 37.8416 21.8265V0.907309C37.8416 0.572926 38.0087 0.406799 38.3406 0.406799H46.9037C49.5911 0.406799 51.6853 1.07557 53.1842 2.41097C54.6831 3.74637 55.4348 5.59506 55.4348 7.95279C55.4348 9.43515 55.1221 10.745 54.4969 11.8823C53.8716 13.0197 52.9765 13.8929 51.8095 14.4978C53.8309 15.9375 55.1114 18.3591 55.6532 21.7626ZM46.7795 10.8664C49.0922 10.8664 50.2485 9.89519 50.2485 7.95492C50.2485 6.01464 49.0922 5.07326 46.7795 5.07326H42.9037V10.8664H46.7795Z" fill="#0B236D"/>
<path d="M78.1521 17.6605C78.4861 17.6605 78.6531 17.8373 78.6531 18.193V21.8265C78.6531 22.1609 78.4861 22.327 78.1521 22.327H63.4969C63.1628 22.327 62.9979 22.1609 62.9979 21.8265V0.907309C62.9979 0.572926 63.1649 0.406799 63.4969 0.406799H78.0279C78.3619 0.406799 78.5268 0.575056 78.5268 0.907309V4.53867C78.5268 4.89435 78.3598 5.07113 78.0279 5.07113H68.06V9.07947H75.8416C76.1756 9.07947 76.3405 9.25624 76.3405 9.61192V13.1198C76.3405 13.4754 76.1735 13.6522 75.8416 13.6522H68.06V17.6605H78.1542H78.1521Z" fill="#0B236D"/>
<path d="M96.152 22.7338C92.8608 22.7338 90.1306 21.6369 87.9636 19.4453C85.7966 17.2538 84.7131 14.5595 84.7131 11.3669C84.7131 8.17429 85.7966 5.48005 87.9636 3.28846C90.1306 1.09686 92.8587 0 96.152 0C98.8801 0 101.24 0.773128 103.231 2.31725C105.221 3.86351 106.454 5.98056 106.934 8.6748C106.996 9.04965 106.85 9.2392 106.497 9.2392H102.278C101.966 9.2392 101.779 9.09437 101.715 8.80046C101.36 7.48635 100.7 6.4832 99.7302 5.79314C98.7623 5.1052 97.5781 4.76017 96.182 4.76017C94.2869 4.76017 92.7644 5.36717 91.6188 6.57691C90.4732 7.78879 89.8994 9.38403 89.8994 11.369C89.8994 13.354 90.4732 14.9493 91.6188 16.159C92.7644 17.3709 94.2848 17.9758 96.182 17.9758C97.5781 17.9758 98.7602 17.6307 99.7302 16.9428C100.698 16.2527 101.36 15.2517 101.715 13.9355C101.777 13.6437 101.966 13.4967 102.278 13.4967H106.497C106.85 13.4967 106.996 13.6948 106.934 14.091C106.454 16.7831 105.218 18.898 103.231 20.4315C101.242 21.9649 98.8822 22.7338 96.152 22.7338Z" fill="#0B236D"/>
<path d="M114.683 22.327C114.349 22.327 114.182 22.1609 114.182 21.8265V0.907309C114.182 0.572926 114.349 0.406799 114.683 0.406799H118.715C119.068 0.406799 119.246 0.575056 119.246 0.907309V21.8265C119.246 22.1609 119.068 22.327 118.715 22.327H114.683Z" fill="#0B236D"/>
<path d="M142.214 0.406799C142.548 0.406799 142.713 0.575056 142.713 0.907309V4.60256C142.713 4.93695 142.546 5.10307 142.214 5.10307H132.338V9.67582H140.869C141.201 9.67582 141.368 9.84407 141.368 10.1763V13.8396C141.368 14.1953 141.201 14.3721 140.869 14.3721H132.338V21.8244C132.338 22.1587 132.161 22.3249 131.807 22.3249H127.775C127.441 22.3249 127.274 22.1587 127.274 21.8244V0.907309C127.274 0.572926 127.441 0.406799 127.775 0.406799H142.212H142.214Z" fill="#0B236D"/>
<path d="M164.683 17.6605C165.017 17.6605 165.184 17.8373 165.184 18.193V21.8265C165.184 22.1609 165.017 22.327 164.683 22.327H150.028C149.694 22.327 149.527 22.1609 149.527 21.8265V0.907309C149.527 0.572926 149.694 0.406799 150.028 0.406799H164.559C164.893 0.406799 165.058 0.575056 165.058 0.907309V4.53867C165.058 4.89435 164.891 5.07113 164.559 5.07113H154.591V9.07947H162.372C162.706 9.07947 162.871 9.25624 162.871 9.61192V13.1198C162.871 13.4754 162.704 13.6522 162.372 13.6522H154.591V17.6605H164.685H164.683Z" fill="#0B236D"/>
<path d="M79.5461 47.4867C81.4304 47.8275 82.9079 48.6474 83.9743 49.9488C85.0407 51.2501 85.5739 52.9689 85.5739 55.1051C85.5739 57.9846 84.5696 60.2316 82.5611 61.8417C80.5525 63.4519 77.5696 64.257 73.6125 64.257H59.1928C58.7281 64.257 58.4969 64.0248 58.4969 63.5605V32.4309C58.4969 31.9666 58.7281 31.7345 59.1928 31.7345H71.3876C75.4369 31.7345 78.4733 32.5161 80.499 34.0815C82.5225 35.6448 83.5354 37.8215 83.5354 40.6095C83.5354 43.9235 82.2056 46.1705 79.5482 47.3461V47.4867H79.5461ZM74.5397 41.4933C74.5397 40.5946 74.2763 39.9535 73.7516 39.5659C73.2249 39.1782 72.3148 38.9844 71.015 38.9844H67.2592V44.096H71.015C72.3148 44.096 73.2249 43.8937 73.7516 43.4911C74.2763 43.0886 74.5397 42.422 74.5397 41.4933ZM72.7773 57.0113C74.105 57.0113 75.0579 56.7876 75.6296 56.3383C76.2013 55.8889 76.4861 55.1392 76.4861 54.0849C76.4861 53.0306 76.1992 52.3278 75.6296 51.8784C75.0579 51.429 74.1071 51.2054 72.7773 51.2054H67.2592V57.0134H72.7773V57.0113Z" fill="#0B236D"/>
<path d="M117.985 56.0827C118.447 56.0827 118.681 56.3148 118.681 56.7791V63.5626C118.681 64.0269 118.447 64.2591 117.985 64.2591H95.728C95.2634 64.2591 95.0321 64.0269 95.0321 63.5626V32.433C95.0321 31.9687 95.2634 31.7366 95.728 31.7366H117.799C118.263 31.7366 118.495 31.9687 118.495 32.433V39.2165C118.495 39.6808 118.263 39.913 117.799 39.913H103.936V44.0023H114.694C115.158 44.0023 115.39 44.2344 115.39 44.6987V51.2969C115.39 51.7612 115.158 51.9934 114.694 51.9934H103.936V56.0827H117.985Z" fill="#0B236D"/>
<path d="M129.295 64.2591C128.831 64.2591 128.599 64.0269 128.599 63.5626V32.433C128.599 31.9687 128.831 31.7366 129.295 31.7366H138.013C138.383 31.7366 138.662 31.907 138.848 32.2477L146.822 47.6741H146.961L154.891 32.2477C155.075 31.907 155.355 31.7366 155.726 31.7366H164.49C164.955 31.7366 165.186 31.9687 165.186 32.433V63.5626C165.186 64.0269 164.955 64.2591 164.49 64.2591H157.026C156.561 64.2591 156.33 64.0269 156.33 63.5626V46.3259H156.145L150.443 57.1987C150.257 57.5395 149.978 57.7098 149.608 57.7098H144.184C143.781 57.7098 143.505 57.5395 143.349 57.1987L137.599 46.3259H137.46V63.5626C137.46 64.0269 137.229 64.2591 136.764 64.2591H129.3H129.295Z" fill="#0B236D"/>
<path d="M38.135 58.6001C38.135 56.4256 38.8181 54.6493 40.1821 53.267C41.5461 51.8848 43.3149 51.1947 45.484 51.1947C47.6532 51.1947 49.4198 51.8848 50.7838 53.267C52.1478 54.6493 52.8309 56.4256 52.8309 58.6001V63.9439C52.8309 64.1547 52.726 64.2591 52.5161 64.2591H38.4498C38.2399 64.2591 38.135 64.1547 38.135 63.9439V58.6001ZM49.0943 58.6853C49.0943 57.6609 48.7752 56.8473 48.1393 56.2445C47.5033 55.6418 46.6168 55.3393 45.484 55.3393C44.3513 55.3393 43.4648 55.6418 42.8288 56.2445C42.1928 56.8473 41.8738 57.6609 41.8738 58.6853V60.2209H49.0964V58.6853H49.0943Z" fill="#0B236D"/>
<path d="M50.9401 33.9451C52.3962 35.4168 53.1243 37.2612 53.1243 39.4784C53.1243 41.6955 52.3962 43.5378 50.9401 45.0117C49.484 46.4834 47.666 47.2203 45.4819 47.2203C43.2977 47.2203 41.4798 46.4834 40.0237 45.0117C38.5676 43.54 37.8395 41.6955 37.8395 39.4784C37.8395 37.2612 38.5676 35.4189 40.0237 33.9451C41.4798 32.4734 43.2977 31.7365 45.4819 31.7365C47.666 31.7365 49.484 32.4734 50.9401 33.9451ZM48.2742 42.1066C48.9872 41.4485 49.3448 40.571 49.3448 39.4763C49.3448 38.3815 48.9872 37.5083 48.2742 36.8566C47.5611 36.2048 46.6296 35.879 45.4819 35.879C44.3341 35.879 43.4027 36.2048 42.6896 36.8566C41.9765 37.5083 41.6189 38.3815 41.6189 39.4763C41.6189 40.571 41.9765 41.4463 42.6896 42.1066C43.4027 42.7668 44.3341 43.0948 45.4819 43.0948C46.6296 43.0948 47.5611 42.7647 48.2742 42.1066Z" fill="#0B236D"/>
</g>
<defs>
<clipPath id="clip0_1_314">
<rect width="164.368" height="64.2591" fill="white" transform="translate(0.81601)"/>
</clipPath>
</defs>
</svg>
