<svg width="94" height="94" viewBox="0 0 94 94" fill="none" xmlns="http://www.w3.org/2000/svg">
<g clip-path="url(#clip0_260_3270)">
<path d="M-0.0143738 -0.141113H94.0144V94.1409H-0.0143738V-0.141113Z" fill="#E5243B"/>
<path d="M6.65833 11.6104C6.12567 11.8989 4.59425 12.3206 4.06158 12.587V10.0346C4.77181 9.74607 6.74711 8.79171 7.41295 8.0593H10.0946V26.0368H6.65833V11.6104ZM19.1643 8.04624H22.0508V8.9288H20.4124V10.9054H21.7022V11.7801H20.4124V14.0622H22.0639V14.92H19.1643V8.04624ZM22.6266 8.04624H24.2833C25.6581 8.04624 26.4388 8.48752 26.4388 9.87402C26.4388 10.6978 26.2351 11.2749 25.5902 11.5373L26.5485 14.9239H25.2925L24.47 11.7749H23.876V14.9239H22.6279L22.6266 8.04624ZM24.2729 10.9903C24.9949 10.9903 25.2573 10.6769 25.2573 9.93799C25.2573 9.24213 25.0628 8.90269 24.3434 8.90269H23.8773V10.9916L24.2729 10.9903ZM27.2182 8.04624H28.8724C30.2471 8.04624 31.0291 8.48752 31.0291 9.87402C31.0291 10.6978 30.8242 11.2749 30.1792 11.5373L31.1388 14.9239H29.8829L29.0591 11.7749H28.4611V14.9239H27.2143L27.2182 8.04624ZM28.8645 10.9903C29.5852 10.9903 29.8489 10.6769 29.8489 9.93799C29.8489 9.24213 29.6531 8.90269 28.935 8.90269H28.4611V10.9916L28.8645 10.9903ZM32.836 8.04624H34.1768L35.5516 14.92H34.3883L34.1168 13.3324H32.9209L32.6389 14.92H31.4639L32.836 8.04624ZM33.981 12.5334L33.5149 9.64816L33.0475 12.5334H33.981ZM36.0686 8.04624H37.6901C39.3612 8.04624 39.8704 8.71599 39.8704 10.1847V12.6875C39.8704 14.198 39.3481 14.92 37.741 14.92H36.0686V8.04624ZM37.7071 14.0453C38.5635 14.0453 38.5975 13.587 38.5975 12.7306V10.0999C38.5975 9.27607 38.5126 8.93663 37.6901 8.93663H37.3167V14.0453H37.7071ZM40.6602 8.04624H41.8992V14.92H40.6602V8.04624ZM42.6799 12.7214V10.2696C42.6799 8.86091 43.129 7.96921 44.6382 7.96921C46.0469 7.96921 46.4974 8.75255 46.4974 9.94713V10.5242H45.2923V9.93016C45.2923 9.3531 45.2832 8.88571 44.6474 8.88571C44.0116 8.88571 43.9424 9.37791 43.9424 10.0059V12.9852C43.9424 13.7319 44.0951 14.0884 44.6474 14.0884C45.2662 14.0884 45.2923 13.604 45.2923 12.993V12.3742H46.4974V12.9251C46.4974 14.1393 46.09 15.014 44.6382 15.014C43.129 15.014 42.6799 14.0622 42.6799 12.7214ZM48.2298 8.04624H49.5706L50.9454 14.92H49.7821L49.5106 13.3324H48.3147L48.034 14.92H46.859L48.2298 8.04624ZM49.3748 12.5334L48.9087 9.64816L48.4361 12.5334H49.3748ZM53.9194 10.5242V9.93016C53.9194 9.3531 53.9116 8.88571 53.2745 8.88571C52.6374 8.88571 52.5708 9.37791 52.5708 10.0059V12.9852C52.5708 13.7319 52.7236 14.0884 53.2745 14.0884C53.8946 14.0884 53.9194 13.604 53.9194 12.993V12.3742H55.1245V12.9251C55.1245 14.0884 54.7511 14.9448 53.4364 15.014V15.4383C54.0644 15.4383 54.4887 15.719 54.4887 16.2451C54.4887 16.847 53.9534 17.1016 53.3346 17.1016C53.1275 17.0995 52.9219 17.0683 52.7236 17.0089V16.4736C52.8719 16.5198 53.0265 16.5427 53.1818 16.5415C53.4782 16.5415 53.704 16.4566 53.704 16.2282C53.704 15.9227 53.3568 15.8117 52.9573 15.7699V14.997C51.7013 14.8665 51.3109 13.9617 51.3109 12.7227V10.2696C51.3083 8.86091 51.7601 7.96399 53.2667 7.96399C54.6754 7.96399 55.1245 8.74732 55.1245 9.94191V10.519L53.9194 10.5242ZM56.8596 8.04624H58.2004L59.5751 14.92H58.4132L58.1416 13.3324H56.9444L56.6611 14.92H55.4861L56.8596 8.04624ZM57.1207 6.74069C56.8987 6.74069 56.823 6.87124 56.823 7.08927H56.229C56.229 6.47827 56.3987 6.02002 56.9509 6.02002C57.3661 6.02002 57.6468 6.41169 58.0111 6.41169C58.2069 6.41169 58.2826 6.29288 58.2826 6.07224H58.8427C58.8427 6.60621 58.75 7.14149 58.1977 7.14149C57.7591 7.14671 57.4706 6.74721 57.1233 6.74721L57.1207 6.74069ZM58.0058 12.5334L57.5384 9.64816L57.0724 12.5334H58.0058ZM59.9146 12.7645V10.1834C59.9146 8.79171 60.4237 7.96399 61.9003 7.96399C63.3769 7.96399 63.8782 8.7878 63.8782 10.1834V12.7645C63.8782 14.1471 63.3691 15.0127 61.9003 15.0127C60.4316 15.0127 59.9146 14.1562 59.9146 12.7645ZM62.6053 13.0557V9.89621C62.6053 9.31916 62.5113 8.88571 61.9003 8.88571C61.2893 8.88571 61.1875 9.31916 61.1875 9.89621V13.0557C61.1875 13.6249 61.2802 14.0831 61.9003 14.0831C62.5204 14.0831 62.6053 13.6301 62.6053 13.0557ZM19.1643 19.274H20.7858C22.4582 19.274 22.9673 19.9438 22.9673 21.4125V23.9153C22.9673 25.4258 22.4451 26.1478 20.8367 26.1478H19.1643V19.274ZM20.8027 25.2796C21.6605 25.2796 21.6944 24.8213 21.6944 23.9649V21.3277C21.6944 20.5039 21.6096 20.1644 20.7805 20.1644H20.4071V25.273L20.8027 25.2796ZM24.6972 19.274H26.038L27.4167 26.1478H26.2534L25.9806 24.5602H24.7834L24.504 26.1478H23.329L24.6972 19.274ZM25.85 23.7612L25.3839 20.8759L24.91 23.7612H25.85ZM29.8228 19.274H31.8425C33.0736 19.274 33.5998 19.9869 33.5998 21.2324C33.5998 22.581 32.87 23.0993 31.7576 23.0993H31.0722V26.1543H29.8241L29.8228 19.274ZM31.554 22.2102C32.242 22.2102 32.4196 21.9491 32.4196 21.2167C32.4196 20.4843 32.3269 20.1566 31.554 20.1566H31.0722V22.2102H31.554ZM34.0149 23.9923V21.4112C34.0149 20.0195 34.5241 19.1918 36.0007 19.1918C37.4773 19.1918 37.9786 20.0156 37.9786 21.4112V23.991C37.9786 25.3736 37.4694 26.2392 36.0007 26.2392C34.5319 26.2392 34.0149 25.384 34.0149 23.9923ZM36.7057 24.2834V21.124C36.7057 20.5469 36.6117 20.1135 36.0007 20.1135C35.3897 20.1135 35.2879 20.5469 35.2879 21.124V24.2834C35.2879 24.8527 35.3819 25.3109 36.0007 25.3109C36.6195 25.3109 36.7057 24.8579 36.7057 24.2834ZM38.7332 19.274H40.4304C41.6355 19.274 42.4423 19.6814 42.4423 21.0391C42.4423 21.8786 42.0937 22.3447 41.4488 22.4478C42.2556 22.6006 42.6368 23.1776 42.6368 24.145C42.6368 25.4597 41.9919 26.1478 40.719 26.1478H38.7332V19.274ZM40.4135 22.0823C41.1603 22.0823 41.3561 21.752 41.3561 21.0561C41.3561 20.3263 40.9997 20.1422 40.2359 20.1422H39.9813V22.077L40.4135 22.0823ZM40.4644 25.2652C41.2281 25.2652 41.4409 24.9088 41.4409 24.1359C41.4409 23.3212 41.1694 22.9479 40.4226 22.9479H39.9813V25.2652H40.4644ZM43.2909 19.274H44.9451C46.3198 19.274 47.1005 19.7153 47.1005 21.1018C47.1005 21.9256 46.8969 22.5027 46.2519 22.7651L47.2115 26.1517H45.9556L45.1318 23.0027H44.5377V26.1517H43.2909V19.274ZM44.9372 22.218C45.6579 22.218 45.9216 21.9047 45.9216 21.1658C45.9216 20.4699 45.7258 20.1305 45.0077 20.1305H44.5403V22.2194L44.9372 22.218ZM47.8813 19.274H50.7665V20.1566H49.1294V22.1332H50.4193V23.0079H49.1294V25.29H50.7861V26.1478H47.8813V19.274ZM51.1138 25.3409L52.9559 20.1396H51.2078V19.274H54.221V19.919L52.3032 25.29H54.2289V26.1478H51.1138V25.3409ZM55.8073 19.274H57.1481L58.5228 26.1478H57.3609L57.0893 24.5602H55.8921L55.6167 26.1478H54.4417L55.8073 19.274ZM56.9536 23.7612L56.4862 20.8759L56.0188 23.7612H56.9536ZM72.5889 44.8303C72.5889 44.3119 72.7426 43.8051 73.0305 43.3741C73.3185 42.943 73.7277 42.607 74.2066 42.4085C74.6855 42.21 75.2125 42.158 75.7209 42.2589C76.2294 42.3598 76.6965 42.6092 77.0632 42.9756C77.43 43.342 77.6799 43.8089 77.7813 44.3172C77.8828 44.8256 77.8312 45.3526 77.6332 45.8317C77.4352 46.3108 77.0996 46.7204 76.6688 47.0087C76.238 47.2971 75.7314 47.4513 75.2131 47.4518C74.8686 47.452 74.5275 47.3843 74.2092 47.2527C73.8909 47.121 73.6017 46.928 73.358 46.6845C73.1144 46.4411 72.921 46.152 72.789 45.8339C72.6571 45.5157 72.5891 45.1747 72.5889 44.8303ZM78.2694 48.4636C79.1374 48.5434 79.9443 48.9449 80.5315 49.5891C81.1187 50.2333 81.4439 51.0738 81.4432 51.9455V59.2149C81.4337 59.4781 81.3225 59.7275 81.1329 59.9104C80.9434 60.0933 80.6902 60.1955 80.4268 60.1955C80.1634 60.1955 79.9102 60.0933 79.7206 59.9104C79.5311 59.7275 79.4199 59.4781 79.4104 59.2149V52.9717C79.4104 52.738 79.3425 52.4208 78.9143 52.4208C78.6193 52.4208 78.5566 52.7341 78.5461 52.9338V71.6451C78.5348 72.0251 78.3758 72.3858 78.103 72.6507C77.8301 72.9155 77.4648 73.0636 77.0846 73.0636C76.7043 73.0636 76.339 72.9155 76.0662 72.6507C75.7933 72.3858 75.6344 72.0251 75.623 71.6451V60.8625C75.6284 60.8061 75.6215 60.7493 75.6028 60.6959C75.5841 60.6424 75.5541 60.5937 75.5147 60.553C75.4754 60.5123 75.4277 60.4806 75.375 60.4601C75.3222 60.4396 75.2656 60.4308 75.2091 60.4343C75.1524 60.4314 75.0957 60.4405 75.0427 60.4611C74.9897 60.4817 74.9417 60.5132 74.9018 60.5537C74.8618 60.5941 74.8309 60.6425 74.811 60.6957C74.791 60.7489 74.7826 60.8058 74.7861 60.8625V71.6451C74.7861 72.0322 74.6324 72.4034 74.3586 72.6772C74.0849 72.9509 73.7136 73.1047 73.3265 73.1047C72.9394 73.1047 72.5682 72.9509 72.2944 72.6772C72.0207 72.4034 71.8669 72.0322 71.8669 71.6451V52.9338C71.8578 52.7341 71.7938 52.4208 71.5001 52.4208C71.0692 52.4208 71.0039 52.738 71.0039 52.9717V59.2149C70.9945 59.4781 70.8833 59.7275 70.6937 59.9104C70.5042 60.0933 70.251 60.1955 69.9876 60.1955C69.7242 60.1955 69.471 60.0933 69.2814 59.9104C69.0919 59.7275 68.9806 59.4781 68.9712 59.2149V51.9455C68.9708 51.0733 69.2967 50.2325 69.8847 49.5882C70.4726 48.9439 71.2803 48.5428 72.1489 48.4636C72.2125 48.454 72.2766 48.4488 72.3408 48.448H78.0722C78.1386 48.4488 78.2049 48.454 78.2707 48.4636M56.9927 46.2076C56.9927 45.717 56.8472 45.2374 56.5747 44.8295C56.3021 44.4216 55.9147 44.1036 55.4614 43.9159C55.0082 43.7281 54.5094 43.679 54.0282 43.7747C53.5471 43.8704 53.1051 44.1067 52.7582 44.4536C52.4112 44.8005 52.175 45.2425 52.0793 45.7237C51.9836 46.2049 52.0327 46.7036 52.2204 47.1569C52.4082 47.6102 52.7261 47.9976 53.134 48.2701C53.542 48.5427 54.0216 48.6882 54.5122 48.6882C55.1701 48.6882 55.801 48.4268 56.2662 47.9616C56.7314 47.4964 56.9927 46.8655 56.9927 46.2076ZM49.508 51.8307L47.4439 58.5503C47.4439 58.5503 47.077 59.7828 48.1215 60.0896C49.1659 60.3964 49.4806 59.1953 49.4806 59.1953L51.1451 53.5814C51.1451 53.5814 51.2352 53.1493 51.559 53.2433C51.8828 53.3373 51.7627 53.7981 51.7627 53.7981L48.8656 64.3065H51.559V71.8344C51.559 72.1775 51.6953 72.5066 51.938 72.7492C52.1806 72.9919 52.5097 73.1282 52.8528 73.1282C53.1959 73.1282 53.525 72.9919 53.7677 72.7492C54.0103 72.5066 54.1466 72.1775 54.1466 71.8344V64.3131H54.8816V71.8409C54.8816 72.184 55.018 72.5131 55.2606 72.7558C55.5032 72.9984 55.8323 73.1347 56.1754 73.1347C56.5186 73.1347 56.8477 72.9984 57.0903 72.7558C57.3329 72.5131 57.4693 72.184 57.4693 71.8409V64.3131H60.1626L57.2682 53.8047C57.2682 53.8047 57.1455 53.3425 57.4693 53.2498C57.793 53.1571 57.8844 53.5879 57.8844 53.5879L59.549 59.2018C59.549 59.2018 59.8649 60.4042 60.9029 60.0961C61.9408 59.788 61.5804 58.5569 61.5804 58.5569L59.5124 51.8307C59.5124 51.8307 58.7761 49.888 57.1416 49.888H51.8802C50.2469 49.888 49.508 51.8307 49.508 51.8307ZM42.1211 46.2076C42.1211 45.717 41.9757 45.2374 41.7031 44.8295C41.4305 44.4216 41.0431 44.1036 40.5898 43.9159C40.1366 43.7281 39.6378 43.679 39.1567 43.7747C38.6755 43.8704 38.2335 44.1067 37.8866 44.4536C37.5397 44.8005 37.3034 45.2425 37.2077 45.7237C37.112 46.2049 37.1611 46.7036 37.3489 47.1569C37.5366 47.6102 37.8545 47.9976 38.2625 48.2701C38.6704 48.5427 39.15 48.6882 39.6406 48.6882C40.2985 48.6882 40.9294 48.4268 41.3946 47.9616C41.8598 47.4964 42.1211 46.8655 42.1211 46.2076ZM34.6364 51.8307L32.5736 58.549C32.5736 58.549 32.2041 59.7815 33.2499 60.0883C34.2956 60.3951 34.6038 59.194 34.6038 59.194L36.2683 53.5801C36.2683 53.5801 36.3597 53.148 36.6835 53.242C37.0073 53.336 36.8859 53.7968 36.8859 53.7968L33.9901 64.3052H36.6861V71.8331C36.6861 72.1762 36.8224 72.5053 37.0651 72.7479C37.3077 72.9906 37.6368 73.1269 37.9799 73.1269C38.3231 73.1269 38.6521 72.9906 38.8948 72.7479C39.1374 72.5053 39.2737 72.1762 39.2737 71.8331V64.3131H40.0088V71.8409C40.0088 72.184 40.1451 72.5131 40.3877 72.7558C40.6303 72.9984 40.9594 73.1347 41.3026 73.1347C41.6457 73.1347 41.9748 72.9984 42.2174 72.7558C42.4601 72.5131 42.5964 72.184 42.5964 71.8409V64.3131H45.2897L42.3953 53.8047C42.3953 53.8047 42.2726 53.3425 42.5964 53.2498C42.9201 53.1571 43.0115 53.5879 43.0115 53.5879L44.6735 59.2018C44.6735 59.2018 44.9908 60.4042 46.03 60.0961C47.0692 59.788 46.7063 58.5569 46.7063 58.5569L44.6396 51.8307C44.6396 51.8307 43.9045 49.888 42.27 49.888H37.0086C35.3806 49.8893 34.6364 51.8307 34.6364 51.8307ZM65.3313 60.104C65.74 60.104 66.1395 59.9828 66.4794 59.7557C66.8192 59.5287 67.0841 59.206 67.2406 58.8285C67.397 58.4509 67.438 58.0354 67.3584 57.6346C67.2788 57.2337 67.082 56.8654 66.7931 56.5764C66.5042 56.2873 66.1361 56.0903 65.7353 56.0104C65.3345 55.9305 64.919 55.9713 64.5413 56.1275C64.1637 56.2837 63.8408 56.5484 63.6135 56.8881C63.3863 57.2278 63.2649 57.6273 63.2646 58.036C63.2641 58.3076 63.3172 58.5766 63.4209 58.8277C63.5245 59.0787 63.6767 59.3068 63.8687 59.4989C64.0607 59.6911 64.2887 59.8434 64.5397 59.9472C64.7907 60.051 65.0597 60.1043 65.3313 60.104ZM60.3767 66.5247C60.2749 66.7662 60.1926 67.2793 60.677 67.5025C61.2462 67.7636 61.5635 67.214 61.5635 67.214L62.6862 63.6303C62.6862 63.6303 62.8821 63.3913 62.8821 63.6394V72.0733C62.8821 72.3544 62.9938 72.6241 63.1926 72.8229C63.3914 73.0217 63.661 73.1334 63.9422 73.1334C64.2234 73.1334 64.493 73.0217 64.6918 72.8229C64.8906 72.6241 65.0023 72.3544 65.0023 72.0733V68.7454C65.0023 68.7454 64.9409 68.2741 65.3196 68.2741C65.6982 68.2741 65.6407 68.7454 65.6407 68.7454V72.0733C65.6407 72.3551 65.7527 72.6255 65.952 72.8248C66.1513 73.024 66.4216 73.136 66.7034 73.136C66.9853 73.136 67.2556 73.024 67.4549 72.8248C67.6542 72.6255 67.7662 72.3551 67.7662 72.0733V63.6394C67.7662 63.3913 67.8967 63.5676 67.8967 63.5676L68.7767 66.0207C68.7767 66.0207 69.1592 67.1174 69.2767 67.1657C69.3718 67.2053 69.4737 67.2258 69.5767 67.226C69.6796 67.2261 69.7816 67.206 69.8768 67.1667C69.972 67.1274 70.0585 67.0698 70.1314 66.997C70.2043 66.9242 70.2621 66.8378 70.3016 66.7427C70.3536 66.6203 70.3733 66.4866 70.3586 66.3545C70.344 66.2223 70.2956 66.0961 70.218 65.9881V65.9803C70.1932 65.9006 68.902 62.736 68.7506 62.2908C68.2845 60.9304 67.4359 60.9421 66.6199 60.9199C65.8039 60.8977 65.3143 60.9199 65.3143 60.9199C65.3143 60.9199 64.7921 60.899 63.7137 60.9304C62.6353 60.9617 62.2972 61.5166 61.1026 64.5729C60.9329 65.0128 60.3597 66.4372 60.3519 66.5234L60.3767 66.5247ZM19.9463 44.8303C19.9463 44.3119 19.7926 43.8051 19.5046 43.3741C19.2167 42.943 18.8074 42.607 18.3286 42.4085C17.8497 42.21 17.3227 42.158 16.8142 42.2589C16.3058 42.3598 15.8387 42.6092 15.4719 42.9756C15.1052 43.342 14.8553 43.8089 14.7539 44.3172C14.6524 44.8256 14.704 45.3526 14.902 45.8317C15.1 46.3108 15.4356 46.7204 15.8664 47.0087C16.2971 47.2971 16.8037 47.4513 17.3221 47.4518C17.6666 47.452 18.0077 47.3843 18.3259 47.2527C18.6442 47.121 18.9335 46.928 19.1771 46.6845C19.4208 46.4411 19.6142 46.152 19.7461 45.8339C19.8781 45.5157 19.9461 45.1747 19.9463 44.8303ZM14.2606 48.4636C13.3925 48.5437 12.5857 48.9452 11.9983 49.5893C11.4109 50.2335 11.0854 51.0738 11.0855 51.9455V59.2149C11.0855 59.4846 11.1926 59.7433 11.3834 59.934C11.5741 60.1248 11.8328 60.2319 12.1025 60.2319C12.3722 60.2319 12.6309 60.1248 12.8216 59.934C13.0124 59.7433 13.1195 59.4846 13.1195 59.2149V52.9717C13.1195 52.738 13.1874 52.4208 13.6156 52.4208C13.912 52.4208 13.9734 52.7341 13.9851 52.9338V71.6451C13.9851 72.0322 14.1389 72.4034 14.4126 72.6772C14.6864 72.9509 15.0576 73.1047 15.4447 73.1047C15.8318 73.1047 16.2031 72.9509 16.4768 72.6772C16.7506 72.4034 16.9043 72.0322 16.9043 71.6451V60.8625C16.9004 60.8061 16.9084 60.7496 16.9279 60.6966C16.9474 60.6435 16.9778 60.5952 17.0173 60.5548C17.0567 60.5143 17.1043 60.4827 17.1568 60.4619C17.2093 60.4412 17.2657 60.4317 17.3221 60.4343C17.3788 60.4311 17.4355 60.4401 17.4885 60.4607C17.5414 60.4812 17.5894 60.5128 17.6292 60.5533C17.6689 60.5938 17.6996 60.6423 17.7192 60.6957C17.7387 60.749 17.7467 60.8059 17.7425 60.8625V71.6451C17.7367 71.8405 17.7701 72.0351 17.8409 72.2174C17.9116 72.3997 18.0182 72.5659 18.1544 72.7062C18.2906 72.8465 18.4535 72.9581 18.6336 73.0342C18.8137 73.1104 19.0072 73.1497 19.2028 73.1497C19.3983 73.1497 19.5918 73.1104 19.7719 73.0342C19.952 72.9581 20.1149 72.8465 20.2511 72.7062C20.3873 72.5659 20.4939 72.3997 20.5647 72.2174C20.6354 72.0351 20.6689 71.8405 20.663 71.6451V52.9338C20.6709 52.7341 20.7374 52.4208 21.0312 52.4208C21.462 52.4208 21.526 52.738 21.526 52.9717V59.2149C21.5354 59.4781 21.6467 59.7275 21.8362 59.9104C22.0258 60.0933 22.279 60.1955 22.5424 60.1955C22.8058 60.1955 23.0589 60.0933 23.2485 59.9104C23.4381 59.7275 23.5493 59.4781 23.5588 59.2149V51.9455C23.5594 51.0734 23.2339 50.2326 22.6461 49.5883C22.0583 48.944 21.2509 48.5428 20.3823 48.4636C20.3188 48.454 20.2547 48.4488 20.1904 48.448H14.459C14.3922 48.4487 14.3254 48.4539 14.2593 48.4636" fill="white"/>
<path d="M9.64676 73.1713C9.61169 73.1711 9.57673 73.1676 9.54231 73.1609C9.39672 73.1333 9.26803 73.0491 9.18454 72.9267C9.10106 72.8043 9.06961 72.6537 9.09712 72.5081L11.4262 60.1667C11.4382 60.0933 11.4647 60.0231 11.5043 59.9601C11.5438 59.8971 11.5955 59.8427 11.6564 59.8C11.7173 59.7574 11.7861 59.7273 11.8588 59.7116C11.9314 59.6959 12.0065 59.6949 12.0796 59.7087C12.1527 59.7224 12.2222 59.7507 12.2842 59.7917C12.3462 59.8328 12.3994 59.8858 12.4405 59.9477C12.4817 60.0096 12.5101 60.0791 12.524 60.1521C12.538 60.2252 12.5371 60.3003 12.5216 60.373L10.1938 72.7196C10.169 72.8466 10.1009 72.961 10.0012 73.0434C9.90139 73.1258 9.77614 73.171 9.64676 73.1713ZM24.8056 59.0217C24.7191 58.8837 24.5904 58.7774 24.4385 58.7188C24.2866 58.6601 24.1198 58.6523 23.963 58.6964C23.8063 58.7405 23.6681 58.8342 23.5691 58.9635C23.4701 59.0927 23.4156 59.2506 23.4138 59.4134C23.4248 59.5266 23.4498 59.638 23.4883 59.745L25.5771 63.5154C25.6523 63.6713 25.6967 63.8402 25.7077 64.0129V72.1073C25.7077 72.377 25.8149 72.6357 26.0056 72.8265C26.1963 73.0172 26.455 73.1243 26.7247 73.1243C26.9945 73.1243 27.2531 73.0172 27.4439 72.8265C27.6346 72.6357 27.7418 72.377 27.7418 72.1073V68.9191C27.7418 68.9191 27.6843 68.4674 28.0499 68.4674C28.4154 68.4674 28.3567 68.9191 28.3567 68.9191V72.1138C28.3567 72.3843 28.4641 72.6436 28.6553 72.8348C28.8465 73.026 29.1059 73.1335 29.3763 73.1335C29.6467 73.1335 29.9061 73.026 30.0973 72.8348C30.2885 72.6436 30.396 72.3843 30.396 72.1138V64.0194C30.407 63.8467 30.4513 63.6778 30.5265 63.522L32.4522 60.0401C32.4522 60.0401 32.6872 59.54 32.6872 59.4199C32.6865 59.2206 32.6068 59.0296 32.4656 58.8889C32.3244 58.7482 32.1332 58.6692 31.9339 58.6692C31.8063 58.6686 31.6806 58.7008 31.5691 58.7628C31.4575 58.8248 31.3637 58.9144 31.2968 59.023H31.2876C31.2276 59.0752 30.2628 60.7934 29.9455 61.1119C29.6074 61.4501 29.3071 61.4135 29.3071 61.4135H26.7952C26.7952 61.4135 26.491 61.4501 26.1555 61.1119C25.82 60.7738 24.8735 59.0752 24.8121 59.023L24.8056 59.0217Z" fill="white"/>
<path d="M28.0459 60.1038C28.4547 60.1041 28.8544 59.9832 29.1944 59.7563C29.5344 59.5294 29.7995 59.2068 29.9561 58.8293C30.1128 58.4517 30.154 58.0362 30.0745 57.6352C29.995 57.2343 29.7984 56.8659 29.5095 56.5767C29.2207 56.2875 28.8526 56.0904 28.4517 56.0104C28.0509 55.9304 27.6353 55.9711 27.2576 56.1273C26.8798 56.2835 26.5569 56.5482 26.3296 56.8879C26.1023 57.2276 25.9808 57.6271 25.9806 58.0358C25.9802 58.3074 26.0334 58.5764 26.1372 58.8273C26.2409 59.0783 26.3931 59.3064 26.585 59.4985C26.777 59.6905 27.005 59.8429 27.2559 59.9468C27.5068 60.0506 27.7757 60.104 28.0473 60.1038M28.0486 63.0048L30.3855 64.7085L31.4952 68.7962H24.6006L25.7129 64.7085L28.0486 63.0048Z" fill="white"/>
</g>
<defs>
<clipPath id="clip0_260_3270">
<rect width="94" height="94" fill="white"/>
</clipPath>
</defs>
</svg>